<?xml version="1.0" standalone="no"?>
<!DOCTYPE svg PUBLIC "-//W3C//DTD SVG 1.1//EN" "http://www.w3.org/Graphics/SVG/1.1/DTD/svg11.dtd" >
<svg xmlns="http://www.w3.org/2000/svg">
<metadata></metadata>
<defs>
<font id="gotham_roundedbook" horiz-adv-x="1740" >
<font-face units-per-em="2048" ascent="1638" descent="-410" />
<missing-glyph horiz-adv-x="614" />
<glyph horiz-adv-x="2048" />
<glyph horiz-adv-x="2048" />
<glyph unicode="&#xd;" horiz-adv-x="2048" />
<glyph unicode=" "  horiz-adv-x="614" />
<glyph unicode="&#x09;" horiz-adv-x="614" />
<glyph unicode="&#xa0;" horiz-adv-x="614" />
<glyph unicode="!" horiz-adv-x="555" d="M180 88v41q0 41 28 68.5t71 27.5q41 0 68.5 -27.5t27.5 -68.5v-41q0 -41 -27.5 -69.5t-68.5 -28.5q-43 0 -71 28t-28 70zM182 1374q-1 28 16.5 47t43.5 19h71q28 0 45 -19t15 -47l-47 -930q-2 -20 -15 -33.5t-32 -13.5q-20 0 -34 13.5t-16 33.5z" />
<glyph unicode="&#x22;" horiz-adv-x="901" d="M137 922l51 440q5 36 26 57t56 21h54q21 0 34 -12.5t13 -36.5q0 -5 -2 -13t-5 -18.5t-4 -16.5l-129 -428q-15 -47 -49 -47q-22 0 -35 14t-10 40zM537 922l51 440q5 36 26 57t56 21h53q21 0 34 -12.5t13 -36.5q0 -3 -10 -48l-129 -428q-15 -47 -49 -47q-22 0 -35 14 t-10 40z" />
<glyph unicode="#" horiz-adv-x="1433" d="M84 432q0 29 21 50.5t49 21.5h188l76 434h-185q-29 0 -50 20.5t-21 49.5t21 50t50 21h209l52 301q5 28 24.5 46t46.5 18q34 0 54.5 -26.5t15.5 -59.5l-49 -279h385l51 301q5 28 24.5 46t47.5 18q34 0 54 -26.5t15 -59.5l-47 -279h162q30 0 51 -20t21 -49t-21.5 -50.5 t-50.5 -21.5h-186l-76 -434h182q29 0 50.5 -20.5t21.5 -49.5t-21.5 -50.5t-50.5 -21.5h-207l-53 -309q-3 -28 -23.5 -45.5t-48.5 -17.5q-34 0 -54 26.5t-15 59.5l51 286h-385l-53 -309q-5 -27 -24.5 -45t-47.5 -18q-35 0 -55 25.5t-15 60.5l49 286h-163q-28 0 -49 20.5 t-21 49.5zM487 504h383l76 434h-383z" />
<glyph unicode="$" horiz-adv-x="1302" d="M119 252q0 31 22.5 52.5t53.5 21.5q26 0 47 -17q174 -147 362 -168v514q-230 55 -333 147.5t-103 252.5q0 158 120.5 264t309.5 115v63q0 26 20 46t46 20t45.5 -20t19.5 -46v-67q183 -19 346 -132q41 -29 41 -67q0 -32 -22.5 -53t-55.5 -21q-26 0 -45 14 q-134 98 -270 119v-506q233 -52 337.5 -146.5t104.5 -250.5q0 -163 -121 -269t-315 -118v-145q0 -26 -19.5 -46t-45.5 -20t-46 20t-20 46v149q-236 20 -444 182q-35 24 -35 66zM326 1065q0 -94 59 -152t219 -100v483q-128 -6 -203 -70.5t-75 -160.5zM723 135q131 7 208 73.5 t77 168.5q0 95 -62 153t-223 99v-494z" />
<glyph unicode="%" horiz-adv-x="1708" d="M106 1079v4q0 151 92 259t236 108q141 0 231.5 -107t90.5 -256v-4q0 -98 -40 -181t-115.5 -134t-170.5 -51q-142 0 -233 106.5t-91 255.5zM244 1083q0 -107 55 -179.5t135 -72.5q82 0 134.5 71.5t52.5 176.5v4q0 106 -56 179t-135 73q-83 0 -134.5 -72t-51.5 -176v-4z M305 47q0 21 12 39l975 1329q22 29 51 29q25 0 42.5 -17.5t17.5 -40.5q0 -20 -12 -38l-975 -1330q-21 -28 -51 -28q-25 0 -42.5 17t-17.5 40zM952 346v4q0 98 40 181.5t115.5 134.5t170.5 51q142 0 231.5 -106.5t89.5 -256.5v-4q0 -151 -90.5 -258.5t-234.5 -107.5 q-141 0 -231.5 106.5t-90.5 255.5zM1087 350q0 -107 55.5 -179.5t135.5 -72.5q83 0 134.5 71.5t51.5 176.5v4q0 107 -55 179.5t-135 72.5q-82 0 -134.5 -72.5t-52.5 -175.5v-4z" />
<glyph unicode="&#x26;" horiz-adv-x="1425" d="M92 381v4q0 278 346 414q-76 89 -109.5 161t-33.5 154v4q0 144 106 242t273 98q149 0 248.5 -94t99.5 -229v-5q0 -252 -338 -372l328 -334q83 125 149 272q21 43 66 43q31 0 52 -21t21 -52q0 -17 -10 -37q-85 -181 -178 -305l199 -203q30 -33 30 -64q0 -32 -21.5 -53.5 t-53.5 -21.5q-35 0 -66 28l-186 195q-209 -225 -471 -225q-196 0 -323.5 111.5t-127.5 289.5zM256 387q0 -116 84 -193t215 -77q193 0 360 188l-385 393q-137 -51 -205.5 -131.5t-68.5 -175.5v-4zM451 1114q0 -63 30.5 -119.5t112.5 -144.5q138 46 207 112.5t69 159.5v4 q0 86 -57 142.5t-145 56.5q-96 0 -156.5 -59t-60.5 -148v-4z" />
<glyph unicode="'" horiz-adv-x="501" d="M137 922l51 440q5 36 26 57t56 21h54q21 0 34 -12.5t13 -36.5q0 -8 -9 -48l-131 -428q-8 -25 -19 -36t-30 -11q-23 0 -35.5 13.5t-9.5 40.5z" />
<glyph unicode="(" horiz-adv-x="888" d="M139 588q0 273 138.5 489t400.5 371q8 8 37 8q25 0 43 -18t18 -43q0 -35 -31 -56q-446 -291 -446 -751q0 -461 446 -752q31 -21 31 -55q0 -25 -18 -43.5t-43 -18.5q-28 0 -37 9q-262 155 -400.5 371t-138.5 489z" />
<glyph unicode=")" horiz-adv-x="888" d="M113 -219q0 35 30 55q447 292 447 752q0 459 -447 751q-30 20 -30 56q0 25 18 43t43 18q29 0 37 -8q262 -155 400.5 -371t138.5 -489t-138.5 -489t-400.5 -371q-9 -9 -37 -9q-25 0 -43 18.5t-18 43.5z" />
<glyph unicode="*" horiz-adv-x="880" d="M143 985q0 16 11 29t26 18l199 92l-199 93q-37 19 -37 49q0 21 15.5 36t36.5 17q19 0 41 -16l172 -121l-17 207q-3 25 11.5 42t37.5 17t37.5 -17t11.5 -40l-16 -209l172 121q22 16 41 16q22 0 36.5 -15.5t14.5 -37.5q0 -33 -37 -49l-198 -93l198 -92q37 -12 37 -47 q0 -22 -15.5 -37.5t-35.5 -15.5q-19 0 -41 16l-172 121l16 -209q3 -23 -11.5 -40t-37.5 -17t-37.5 17t-11.5 40l17 209l-172 -121q-22 -16 -41 -16q-22 0 -37 15.5t-15 37.5z" />
<glyph unicode="+" horiz-adv-x="1280" d="M129 721q0 31 22.5 52.5t53.5 21.5h358v354q0 32 23 54t55 22q31 0 53.5 -22t22.5 -54v-354h360q31 0 52.5 -21.5t21.5 -52.5t-21.5 -52.5t-52.5 -21.5h-360v-354q0 -32 -22.5 -54t-53.5 -22q-32 0 -55 22t-23 54v354h-358q-31 0 -53.5 21.5t-22.5 52.5z" />
<glyph unicode="," horiz-adv-x="501" d="M92 -205q0 27 27 37q63 28 90 68t24 100q-34 8 -56.5 33.5t-22.5 64.5v33q0 40 26.5 67t67.5 27q45 0 72.5 -30.5t27.5 -81.5v-39q0 -172 -74 -246q-31 -31 -72 -52.5t-67 -21.5q-20 0 -31.5 11t-11.5 30z" />
<glyph unicode="-" horiz-adv-x="835" d="M123 616q0 33 24.5 57.5t57.5 24.5h426q33 0 57.5 -24.5t24.5 -57.5q0 -34 -24 -59t-58 -25h-426q-34 0 -58 25t-24 59z" />
<glyph unicode="." horiz-adv-x="501" d="M154 88v41q0 41 27.5 68.5t70.5 27.5q41 0 68.5 -27.5t27.5 -68.5v-41q0 -41 -27.5 -69.5t-68.5 -28.5q-42 0 -70 28t-28 70z" />
<glyph unicode="/" horiz-adv-x="1040" d="M-8 -209q0 22 10 35l891 1778q20 41 61 41q26 0 45 -19t19 -45q0 -19 -8 -35l-893 -1777q-20 -41 -60 -41q-28 0 -46.5 18.5t-18.5 44.5z" />
<glyph unicode="0" horiz-adv-x="1464" d="M127 713v4q0 201 74 369t214.5 270t319.5 102t318 -101t211.5 -268t72.5 -368v-4q0 -201 -73.5 -369.5t-213.5 -270.5t-319 -102q-136 0 -250.5 59t-191 159.5t-119.5 235t-43 284.5zM295 717q0 -117 31.5 -224.5t87.5 -189.5t139.5 -131t181.5 -49t180.5 48t137.5 129.5 t85.5 188.5t30.5 224v4q0 158 -53 292.5t-154.5 218t-230.5 83.5q-98 0 -181 -48t-138 -129t-86 -188t-31 -225v-4z" />
<glyph unicode="1" horiz-adv-x="733" d="M61 1280q0 50 58 70l235 82q59 18 88 18h4q35 0 57.5 -23.5t22.5 -56.5v-1298q0 -34 -23 -58t-57 -24q-32 0 -55.5 24t-23.5 58v1210l-201 -65q-21 -7 -35 -7q-28 0 -49 20.5t-21 49.5z" />
<glyph unicode="2" horiz-adv-x="1226" d="M90 76q0 43 39 76l489 432q169 150 234.5 247t65.5 203q0 123 -84 199t-205 76q-110 0 -193.5 -51.5t-163.5 -157.5q-22 -29 -59 -29q-31 0 -52.5 21.5t-21.5 52.5q0 25 17 45q96 134 206.5 199t278.5 65q193 0 318.5 -115t125.5 -290v-5q0 -103 -40.5 -191.5 t-112.5 -167.5t-209 -198l-383 -340h694q31 0 53.5 -21.5t22.5 -51.5q0 -31 -22.5 -52.5t-53.5 -21.5h-862q-36 0 -59 21.5t-23 54.5z" />
<glyph unicode="3" horiz-adv-x="1255" d="M111 250q0 32 23.5 56t55.5 24q35 0 60 -25q159 -182 389 -182q133 0 223 77t90 201v5q0 131 -110 203.5t-291 72.5h-51q-29 0 -50.5 20.5t-21.5 49.5q0 30 33 63l418 473h-635q-31 0 -53.5 21t-22.5 51q0 31 22.5 52.5t53.5 21.5h782q34 0 56 -19.5t22 -50.5 q0 -38 -39 -80l-422 -469q97 -8 180 -35.5t150 -75t105 -122.5t38 -170v-4q0 -189 -138 -311t-341 -122q-306 0 -500 218q-26 26 -26 57z" />
<glyph unicode="4" horiz-adv-x="1374" d="M90 418q0 36 31 78l745 909q21 26 40.5 37.5t49.5 11.5q37 0 61.5 -24.5t24.5 -59.5v-895h162q28 0 49 -20t21 -49q0 -27 -21 -46.5t-49 -19.5h-162v-272q0 -32 -23 -55t-56 -23q-32 0 -55 23t-23 55v272h-713q-35 0 -58.5 22t-23.5 56zM283 475h602v739z" />
<glyph unicode="5" horiz-adv-x="1253" d="M123 229q0 30 23 53t55 23t55 -20q179 -162 369 -162q151 0 247.5 89t96.5 228v4q0 134 -99.5 217.5t-257.5 83.5q-74 0 -137.5 -17.5t-102 -34.5t-50.5 -17q-32 0 -82 31q-38 26 -35 88l33 561q1 36 23 57t54 21h689q31 0 52 -22t21 -54q0 -31 -21 -52.5t-52 -21.5h-619 l-31 -459q145 64 283 64q140 0 252 -51.5t178 -152t66 -234.5v-5q0 -207 -143.5 -339t-366.5 -132q-132 0 -252 51.5t-215 135.5q-33 26 -33 67z" />
<glyph unicode="6" horiz-adv-x="1325" d="M125 676v4q0 164 41 305.5t116 247t188.5 165.5t250.5 60q205 0 373 -127q39 -25 39 -67q0 -32 -23 -55t-55 -23q-24 0 -45 14q-74 56 -144 83.5t-153 27.5q-193 0 -307.5 -176t-112.5 -457q149 219 407 219q134 0 246 -53t181 -155t69 -232v-4q0 -206 -147.5 -342 t-366.5 -136q-231 0 -377 146q-92 92 -136 218.5t-44 336.5zM322 440q0 -137 102.5 -229t259.5 -92q155 0 250.5 93.5t95.5 233.5v5q0 133 -98 220t-252 87q-156 0 -257 -94.5t-101 -219.5v-4z" />
<glyph unicode="7" horiz-adv-x="1220" d="M129 1360q0 31 22.5 52.5t53.5 21.5h839q34 0 56 -19.5t22 -52.5q0 -30 -22 -72l-619 -1243q-26 -57 -78 -57q-33 0 -57 21.5t-24 54.5q0 21 12 49l594 1171h-723q-31 0 -53.5 21t-22.5 53z" />
<glyph unicode="8" horiz-adv-x="1290" d="M106 385v4q0 123 80 213.5t215 138.5q-245 112 -245 330v4q0 108 67.5 195.5t179 135.5t242.5 48t242.5 -48t179.5 -135.5t68 -195.5v-4q0 -217 -246 -330q135 -50 215 -139t80 -211v-4q0 -120 -71 -213t-193.5 -143.5t-274.5 -50.5q-231 0 -385 113.5t-154 291.5z M270 389q0 -112 102 -190t273 -78t273 77.5t102 190.5v4q0 119 -108 196t-267 77t-267 -77t-108 -196v-4zM317 1061q0 -115 94.5 -188.5t233.5 -73.5t233.5 73.5t94.5 188.5v4q0 106 -94 177t-234 71t-234 -70.5t-94 -177.5v-4z" />
<glyph unicode="9" horiz-adv-x="1325" d="M129 967v4q0 135 64.5 246t183.5 176t268 65q230 0 377 -147q87 -87 132.5 -218.5t45.5 -336.5v-4q0 -225 -74.5 -402t-210.5 -276t-311 -99q-208 0 -399 144q-37 26 -37 65q0 32 23 55t55 23q25 0 51 -16q150 -123 311 -123q127 0 225.5 80.5t151 223.5t49.5 325 q-144 -230 -405 -230q-220 0 -360 125.5t-140 319.5zM295 975q0 -137 98 -225t254 -88q158 0 257.5 97t99.5 226v4q0 138 -103 232t-262 94q-156 0 -250 -98.5t-94 -237.5v-4z" />
<glyph unicode=":" horiz-adv-x="522" d="M164 88v41q0 41 27.5 68.5t70.5 27.5q41 0 68.5 -27.5t27.5 -68.5v-41q0 -41 -27.5 -69.5t-68.5 -28.5q-42 0 -70 28t-28 70zM164 930v43q0 40 28 68t70 28q41 0 68.5 -28t27.5 -68v-43q0 -41 -27.5 -68.5t-68.5 -27.5q-43 0 -70.5 27.5t-27.5 68.5z" />
<glyph unicode=";" horiz-adv-x="522" d="M102 -205q0 27 27 37q63 28 90.5 68t24.5 100q-35 8 -57.5 33.5t-22.5 64.5v33q0 40 26.5 67t67.5 27q45 0 72.5 -30.5t27.5 -81.5v-39q0 -173 -73 -246q-31 -31 -72.5 -52.5t-67.5 -21.5q-20 0 -31.5 11t-11.5 30zM164 930v43q0 40 28 68t70 28q41 0 68.5 -28t27.5 -68 v-43q0 -41 -27.5 -68.5t-68.5 -27.5q-43 0 -70.5 27.5t-27.5 68.5z" />
<glyph unicode="&#x3c;" horiz-adv-x="1280" d="M125 717v8q0 59 59 88l809 412q20 10 43 10q27 1 46.5 -19.5t19.5 -50.5q0 -46 -47 -69l-752 -373l752 -377q47 -23 47 -70q0 -30 -20 -49.5t-50 -19.5q-14 0 -39 10l-809 412q-59 29 -59 88z" />
<glyph unicode="=" horiz-adv-x="1280" d="M156 481q0 31 22 53.5t53 22.5h818q32 0 54.5 -22.5t22.5 -53.5q0 -32 -22.5 -53.5t-54.5 -21.5h-818q-31 0 -53 21.5t-22 53.5zM156 961q0 31 22 53t53 22h818q32 0 54.5 -22t22.5 -53q0 -32 -22.5 -54t-54.5 -22h-818q-31 0 -53 22t-22 54z" />
<glyph unicode="&#x3e;" horiz-adv-x="1280" d="M178 276q0 46 47 70l752 373l-752 377q-47 24 -47 69q0 29 20.5 49.5t49.5 20.5q11 0 41 -10l807 -412q61 -30 61 -88v-8q0 -58 -61 -88l-807 -412q-23 -10 -43 -10q-28 -1 -48 19.5t-20 49.5z" />
<glyph unicode="?" horiz-adv-x="1099" d="M72 1196q0 31 24 55q184 201 447 201q205 0 331.5 -114t126.5 -291v-5q0 -93 -33.5 -167.5t-93 -124t-134.5 -80t-165 -43.5l-14 -176q-3 -25 -17.5 -40.5t-35.5 -15.5h-8q-20 0 -35.5 15.5t-18.5 40.5l-22 229q-3 29 13.5 49t45.5 23q166 12 260.5 85t94.5 199v4 q0 113 -82 190t-217 77q-191 0 -338 -160q-27 -23 -56 -23q-31 0 -52 20.5t-21 51.5zM403 88v41q0 41 28.5 68.5t70.5 27.5q41 0 69.5 -27.5t28.5 -68.5v-41q0 -41 -28.5 -69.5t-69.5 -28.5t-70 28.5t-29 69.5z" />
<glyph unicode="@" horiz-adv-x="2007" d="M109 561q0 181 70 346t189.5 286t286 193t351.5 72q184 0 350.5 -67t284.5 -178t187.5 -259.5t69.5 -306.5q0 -125 -33 -224t-88 -158t-121.5 -89.5t-139.5 -30.5q-109 0 -183 46.5t-104 125.5q-146 -172 -338 -172q-154 0 -260.5 104t-106.5 269q0 106 41.5 202 t108.5 162.5t152 106t171 39.5q202 0 299 -170l17 88q6 34 24.5 52t46.5 18q33 0 53.5 -25.5t14.5 -60.5l-74 -414q-14 -80 -14 -125q0 -78 45.5 -122t128.5 -44q119 0 203 108.5t84 313.5q0 140 -63 274.5t-170 238t-261 166.5t-325 63q-173 0 -327 -66t-262.5 -177 t-171.5 -264t-63 -321q0 -136 39.5 -261t114.5 -226.5t177 -177t233 -117t276 -41.5t261 32t233 99q8 4 20 4t21.5 -10.5t9.5 -22.5q0 -11 -17 -28q-249 -144 -528 -144q-129 0 -249.5 32.5t-220.5 90.5t-183 140.5t-140 180.5t-88.5 213t-31.5 236zM672 528 q0 -119 69.5 -187.5t180.5 -68.5q132 0 233.5 112t101.5 257q0 112 -71 186t-178 74q-132 0 -234 -109t-102 -264z" />
<glyph unicode="A" horiz-adv-x="1605" d="M104 63q0 21 11 43l581 1272q32 72 103 72h8q71 0 100 -72l582 -1269q10 -23 10 -41q0 -32 -23 -55t-55 -23q-55 0 -80 59l-149 330h-786l-150 -334q-22 -55 -78 -55q-31 0 -52.5 21t-21.5 52zM469 526h659l-329 734z" />
<glyph unicode="B" horiz-adv-x="1478" d="M203 82v1270q0 34 24 58t56 24h530q245 0 375 -127q92 -95 92 -230v-4q0 -128 -64 -208.5t-163 -123.5q307 -92 307 -346v-4q0 -183 -141.5 -287t-378.5 -104h-557q-32 0 -56 24t-24 58zM362 145h482q163 0 257.5 68t94.5 188v5q0 118 -97.5 181.5t-283.5 63.5h-453v-506 zM362 795h424q150 0 240 66.5t90 189.5v4q0 108 -83 170.5t-234 62.5h-437v-493z" />
<glyph unicode="C" horiz-adv-x="1511" d="M139 713v4q0 151 54.5 287t149 236t230.5 159t291 59q163 0 283 -47.5t229 -138.5q33 -29 33 -66q0 -32 -25 -56t-57 -24q-25 0 -53 19q-90 80 -188.5 122t-223.5 42q-117 0 -220 -46t-176.5 -124t-116 -187t-42.5 -231v-4q0 -164 72.5 -299.5t200 -214t282.5 -78.5 q129 0 229.5 43t196.5 131q23 23 51 23q31 0 54.5 -23.5t23.5 -54.5q0 -36 -26 -58q-114 -104 -239.5 -157.5t-293.5 -53.5q-152 0 -286.5 57.5t-229 156.5t-149 235t-54.5 289z" />
<glyph unicode="D" horiz-adv-x="1601" d="M203 82v1270q0 34 24 58t56 24h417q166 0 309 -55t242 -150t155 -226.5t56 -281.5v-4q0 -150 -56 -282t-155 -228t-242 -151.5t-309 -55.5h-417q-32 0 -56 24t-24 58zM365 150h335q133 0 245 43.5t188 119t118.5 179t42.5 221.5v4q0 118 -42.5 222t-118.5 180.5 t-188 120.5t-245 44h-335v-1134z" />
<glyph unicode="E" horiz-adv-x="1372" d="M203 82v1270q0 34 24 58t56 24h891q31 0 52 -21.5t21 -52.5t-21 -52.5t-52 -21.5h-809v-489h716q30 0 52 -22t22 -52q0 -31 -21.5 -52.5t-52.5 -21.5h-716v-502h819q31 0 52 -21t21 -52t-21 -52.5t-52 -21.5h-901q-32 0 -56 24t-24 58z" />
<glyph unicode="F" horiz-adv-x="1343" d="M203 72v1280q0 34 24 58t56 24h886q31 0 52.5 -21.5t21.5 -52.5t-21.5 -53.5t-52.5 -22.5h-804v-512h712q31 0 52.5 -21.5t21.5 -52.5t-21.5 -52t-52.5 -21h-712v-553q0 -34 -24 -58t-58 -24q-32 0 -56 24t-24 58z" />
<glyph unicode="G" horiz-adv-x="1605" d="M139 713v4q0 147 52.5 281.5t145 236.5t228.5 162.5t293 60.5q155 0 270.5 -38.5t219.5 -114.5q32 -25 32 -66q0 -34 -24 -58t-56 -24q-23 0 -51 21q-84 64 -177 97.5t-220 33.5q-155 0 -280.5 -80.5t-195 -214.5t-69.5 -293v-4q0 -171 68.5 -306t198 -212.5t300.5 -77.5 q118 0 227 40t187 103v357h-385q-29 0 -50.5 21t-21.5 50q0 31 21.5 52.5t50.5 21.5h461q32 0 56 -24t24 -58v-436q0 -61 -55 -98q-239 -175 -521 -175q-220 0 -387.5 99.5t-254.5 266t-87 372.5z" />
<glyph unicode="H" horiz-adv-x="1556" d="M203 72v1290q0 34 24 58t56 24q34 0 58 -24t24 -58v-565h827v565q0 34 24 58t58 24q32 0 56 -24t24 -58v-1290q0 -34 -24 -58t-56 -24q-34 0 -58 24t-24 58v573h-827v-573q0 -34 -24 -58t-58 -24q-32 0 -56 24t-24 58z" />
<glyph unicode="I" horiz-adv-x="595" d="M217 72v1290q0 34 24 58t56 24q34 0 58 -24t24 -58v-1290q0 -34 -24 -58t-58 -24q-32 0 -56 24t-24 58z" />
<glyph unicode="J" horiz-adv-x="1132" d="M78 240q0 32 24 55.5t56 23.5q33 0 57 -28q61 -83 130 -122.5t165 -39.5q126 0 203.5 89.5t77.5 254.5v889q0 34 23.5 58t57.5 24t57 -24t23 -58v-887q0 -246 -131 -377q-121 -118 -315 -118q-255 0 -406 204q-22 22 -22 56z" />
<glyph unicode="K" horiz-adv-x="1462" d="M203 72v1290q0 34 24 58t56 24q34 0 58 -24t24 -58v-784l817 837q33 29 63 29q32 0 55 -24.5t23 -55.5q0 -30 -27 -57l-508 -504l545 -672q23 -30 23 -59q0 -33 -24.5 -57.5t-57.5 -24.5q-40 0 -66 37l-534 665l-309 -309v-311q0 -34 -24 -58t-58 -24q-32 0 -56 24 t-24 58z" />
<glyph unicode="L" horiz-adv-x="1267" d="M203 82v1280q0 34 24 58t56 24q34 0 58 -24t24 -58v-1212h743q31 0 52.5 -22.5t21.5 -53.5t-21.5 -52.5t-52.5 -21.5h-825q-32 0 -56 24t-24 58z" />
<glyph unicode="M" horiz-adv-x="1777" d="M203 70v1290q0 32 24 56t56 24h18q48 0 76 -43l512 -770l512 770q25 43 76 43h18q32 0 56 -24t24 -56v-1288q0 -34 -24 -58t-56 -24q-33 0 -57.5 24.5t-24.5 57.5v1069l-459 -674q-27 -41 -67 -41q-43 0 -70 41l-457 672v-1069q0 -34 -22.5 -57t-56.5 -23q-32 0 -55 23 t-23 57z" />
<glyph unicode="N" horiz-adv-x="1617" d="M203 70v1290q0 32 24 56t56 24h22q45 0 82 -47l870 -1110v1081q0 33 23.5 56.5t56.5 23.5q32 0 55 -24t23 -56v-1294q0 -32 -21 -54t-53 -22h-8q-42 0 -84 49l-889 1137v-1110q0 -33 -23 -56.5t-56 -23.5q-32 0 -55 24t-23 56z" />
<glyph unicode="O" d="M139 713v4q0 147 54 282t148.5 236.5t233 162t297.5 60.5t297 -59.5t232 -160.5t147.5 -235.5t53.5 -281.5v-4q0 -118 -34 -229t-99 -203.5t-153.5 -162t-204 -108.5t-243.5 -39q-159 0 -297 60t-231.5 161t-147 235.5t-53.5 281.5zM307 717q0 -162 72 -297t202 -215 t291 -80t290 79t200.5 213t71.5 296v4q0 162 -72.5 297t-202.5 215t-291 80t-290 -79t-200 -213t-71 -296v-4z" />
<glyph unicode="P" horiz-adv-x="1368" d="M203 72v1280q0 34 24 58t56 24h456q245 0 391 -122t146 -333v-4q0 -113 -45 -203.5t-122.5 -147.5t-178.5 -87.5t-217 -30.5h-348v-434q0 -34 -24 -58t-58 -24q-32 0 -56 24t-24 58zM365 653h354q178 0 285.5 87t107.5 229v4q0 150 -104 230.5t-281 80.5h-362v-631z" />
<glyph unicode="Q" d="M139 713v4q0 147 54 282t148.5 236.5t233 162t297.5 60.5t297 -59.5t232 -160.5t147.5 -235.5t53.5 -281.5v-4q0 -274 -170 -481l135 -113q32 -29 32 -68q0 -33 -23 -56.5t-56 -23.5q-32 0 -62 27l-139 125q-196 -152 -451 -152q-159 0 -297 60t-231.5 161t-147 235.5 t-53.5 281.5zM307 717q0 -162 72 -297t202 -215t291 -80q192 0 332 106l-217 187q-35 27 -35 65q0 34 24 58t56 24q33 0 62 -26l219 -201q121 158 121 375v4q0 162 -72.5 297t-202.5 215t-291 80t-290 -79t-200 -213t-71 -296v-4z" />
<glyph unicode="R" horiz-adv-x="1480" d="M203 72v1280q0 34 24 58t56 24h536q264 0 408 -144q110 -110 110 -282v-4q0 -171 -104 -276.5t-279 -139.5l357 -459q26 -29 26 -59q0 -32 -25.5 -56t-56.5 -24q-44 0 -75 43l-404 524h-411v-485q0 -34 -24 -58t-58 -24q-32 0 -56 24t-24 58zM365 702h440 q164 0 266.5 79.5t102.5 215.5v4q0 132 -97 207.5t-270 75.5h-442v-582z" />
<glyph unicode="S" horiz-adv-x="1310" d="M121 233q0 34 23 57t55 23q31 0 49 -18q103 -88 210.5 -129t241.5 -41q143 0 231.5 68.5t88.5 175.5v4q0 70 -30 116.5t-112.5 85.5t-230.5 70q-255 56 -368 149t-113 265v4q0 169 133.5 280t337.5 111q138 0 247.5 -34.5t209.5 -106.5q34 -25 34 -66q0 -32 -22.5 -55 t-54.5 -23q-26 0 -47 15q-172 125 -371 125q-137 0 -221 -66.5t-84 -165.5v-4q0 -71 31 -118t116.5 -86.5t241.5 -73.5q243 -53 355 -148.5t112 -257.5v-4q0 -183 -137 -294t-353 -111q-300 0 -542 192q-31 21 -31 61z" />
<glyph unicode="T" horiz-adv-x="1327" d="M90 1358q0 31 22.5 53.5t53.5 22.5h995q31 0 53.5 -22.5t22.5 -53.5t-22.5 -52.5t-53.5 -21.5h-416v-1212q0 -34 -23.5 -58t-57.5 -24t-58 24t-24 58v1212h-416q-31 0 -53.5 21.5t-22.5 52.5z" />
<glyph unicode="U" horiz-adv-x="1554" d="M180 600v762q0 34 24 58t56 24q34 0 58 -24t24 -58v-752q0 -230 116 -356.5t322 -126.5q202 0 317 121.5t115 351.5v762q0 34 24 58t58 24q32 0 56 -24t24 -58v-750q0 -307 -161.5 -471t-436.5 -164q-272 0 -434 162.5t-162 460.5z" />
<glyph unicode="V" horiz-adv-x="1523" d="M102 1364q0 31 24.5 55.5t57.5 24.5q59 0 84 -62l496 -1187l498 1191q28 58 79 58q33 0 56.5 -23.5t23.5 -54.5q0 -18 -6 -33l-555 -1282q-29 -67 -94 -67h-8q-68 0 -94 67l-553 1276q-9 18 -9 37z" />
<glyph unicode="W" horiz-adv-x="2254" d="M109 1362q0 32 25 57t59 25q29 0 51 -19.5t32 -48.5l396 -1138l375 1142q21 64 79 64h11q59 0 80 -64l374 -1142l398 1142q21 64 77 64q32 0 57 -24.5t25 -55.5q0 -9 -10 -39l-459 -1274q-24 -69 -84 -69h-12q-60 0 -84 69l-373 1102l-370 -1102q-24 -69 -84 -69h-13 q-62 0 -84 69l-458 1274q-8 24 -8 37z" />
<glyph unicode="X" horiz-adv-x="1472" d="M135 66q0 31 23 57l479 608l-455 574q-26 33 -26 61q0 31 23.5 54.5t56.5 23.5q38 0 71 -41l432 -561l426 555q20 24 37 35.5t41 11.5q30 0 52 -22t22 -54q0 -31 -23 -57l-456 -578l473 -604q26 -29 26 -59q0 -33 -23.5 -56.5t-56.5 -23.5q-38 0 -71 41l-453 587 l-446 -581q-21 -24 -38 -35.5t-42 -11.5q-28 0 -50 22t-22 54z" />
<glyph unicode="Y" horiz-adv-x="1449" d="M92 1364q0 32 25 56t59 24q44 0 78 -49l473 -682l477 682q34 49 76 49q33 0 56.5 -23.5t23.5 -56.5q0 -22 -23 -59l-530 -738v-495q0 -34 -24 -58t-58 -24t-58 24t-24 58v491l-532 746q-19 30 -19 55z" />
<glyph unicode="Z" horiz-adv-x="1419" d="M137 70v4q0 34 29 71l899 1143h-832q-31 0 -52 21t-21 51q0 31 21 52.5t52 21.5h977q29 0 51.5 -21t22.5 -49v-4q0 -35 -29 -72l-899 -1143h865q31 0 52 -21t21 -50q0 -31 -21 -52.5t-52 -21.5h-1008q-31 0 -53.5 21t-22.5 49z" />
<glyph unicode="[" horiz-adv-x="899" d="M193 -186v1540q0 32 23.5 56t55.5 24h455q25 0 43 -18.5t18 -43.5t-18 -43t-43 -18h-385v-1454h385q25 0 43 -18.5t18 -43.5t-18 -43t-43 -18h-455q-32 0 -55.5 24t-23.5 56z" />
<glyph unicode="\" horiz-adv-x="1040" d="M23 1581q0 26 18.5 45t44.5 19q41 0 61 -41l893 -1778q9 -18 9 -35q0 -26 -19 -44.5t-47 -18.5q-39 0 -59 41l-893 1777q-8 16 -8 35z" />
<glyph unicode="]" horiz-adv-x="899" d="M111 -205q0 25 18.5 43.5t44.5 18.5h385v1454h-385q-26 0 -44.5 18t-18.5 43t18.5 43.5t44.5 18.5h455q32 0 56 -24t24 -56v-1540q0 -32 -24 -56t-56 -24h-455q-26 0 -44.5 18t-18.5 43z" />
<glyph unicode="^" horiz-adv-x="1024" d="M162 1030q0 19 14 39l244 326q41 51 84 51h16q43 0 84 -51l242 -326q16 -19 16 -39q0 -11 -11.5 -20t-29.5 -9q-35 0 -57.5 11t-46.5 41l-207 272l-207 -272q-24 -30 -47 -41t-55 -11q-17 0 -28 9t-11 20z" />
<glyph unicode="_" horiz-adv-x="1228" d="M-70 -262q0 26 19.5 44.5t46.5 18.5h1237q26 0 45.5 -18.5t19.5 -44.5q0 -28 -19 -47t-46 -19h-1237q-27 0 -46.5 19.5t-19.5 46.5z" />
<glyph unicode="`" horiz-adv-x="1024" d="M313 1442q0 21 37 41t74 20q44 0 74 -47l123 -186q10 -13 10 -31q0 -12 -11 -20.5t-28 -8.5q-31 0 -51.5 7.5t-44.5 31.5l-154 146q-29 29 -29 47z" />
<glyph unicode="a" horiz-adv-x="1185" d="M96 307v4q0 164 123.5 253t329.5 89q168 0 325 -45v37q0 141 -82 215t-233 74q-140 0 -274 -60q-15 -6 -29 -6q-28 0 -49 20t-21 48q0 23 13 40.5t30 24.5q166 72 346 72q226 0 343 -117q108 -108 108 -309v-579q0 -34 -22 -56t-54 -22q-33 0 -54.5 21t-21.5 52v97 q-141 -183 -382 -183q-102 0 -190 36t-147 113t-59 181zM256 313q0 -96 77 -153.5t189 -57.5q149 0 252 81.5t103 205.5v103q-153 45 -312 45q-147 0 -228 -59.5t-81 -160.5v-4z" />
<glyph unicode="b" horiz-adv-x="1359" d="M176 70v1355q0 34 23 57t55 23q34 0 57 -23t23 -57v-579q159 235 405 235q77 0 150.5 -23.5t137.5 -70t113 -111.5t77 -154t28 -190v-4q0 -126 -43 -231.5t-114 -174.5t-161.5 -107t-187.5 -38q-249 0 -405 226v-133q0 -33 -22.5 -56.5t-55.5 -23.5t-56.5 23.5 t-23.5 56.5zM328 528q0 -90 32 -167.5t85.5 -129.5t122.5 -82t143 -30q159 0 265.5 110t106.5 297v4q0 183 -108.5 296.5t-263.5 113.5q-153 0 -268 -116t-115 -292v-4z" />
<glyph unicode="c" horiz-adv-x="1169" d="M111 524v4q0 148 70.5 275t195.5 202.5t276 75.5q222 0 389 -153q25 -21 25 -56q0 -32 -22.5 -53.5t-53.5 -21.5q-29 0 -51 18q-66 60 -133.5 93.5t-155.5 33.5q-160 0 -269.5 -119.5t-109.5 -290.5v-4q0 -172 112.5 -291.5t277.5 -119.5q158 0 294 129q20 20 45 20 q29 0 50.5 -21.5t21.5 -49.5q0 -30 -20 -50q-170 -170 -400 -170q-151 0 -276 75t-195.5 201t-70.5 273z" />
<glyph unicode="d" horiz-adv-x="1359" d="M115 526v4q0 125 43 231t114.5 175t162 107t186.5 38q250 0 405 -225v569q0 34 22 57t56 23t57 -23t23 -57v-1355q0 -34 -23 -57t-55 -23q-34 0 -57 23t-23 57v143q-160 -236 -405 -236q-77 0 -150.5 23.5t-137.5 70t-113 111.5t-77 154t-28 190zM276 528 q0 -182 109.5 -295.5t263.5 -113.5q153 0 268 116t115 293v4q0 177 -115 292.5t-268 115.5q-159 0 -266 -110.5t-107 -297.5v-4z" />
<glyph unicode="e" horiz-adv-x="1212" d="M111 526v4q0 151 65 277t181.5 200t260.5 74q114 0 208.5 -44t155.5 -118.5t94.5 -171t33.5 -202.5q0 -32 -22 -53t-52 -21h-766q17 -167 122 -262.5t251 -95.5q172 0 305 123q22 18 45 18q29 0 49.5 -20t20.5 -48q0 -29 -25 -51q-81 -78 -176 -119t-223 -41 q-145 0 -265 68.5t-191.5 195.5t-71.5 287zM270 588h682q-13 155 -100.5 257.5t-237.5 102.5q-137 0 -233 -101.5t-111 -258.5z" />
<glyph unicode="f" horiz-adv-x="751" d="M82 989q0 28 20 48t48 20h86v92q0 180 92 272q82 82 227 82q73 0 125 -12q24 -5 40.5 -23.5t16.5 -44.5q0 -31 -22 -50.5t-53 -16.5q-67 10 -87 10q-184 0 -184 -225v-86h275q29 0 49 -19.5t20 -48.5q0 -28 -20 -47.5t-49 -19.5h-273v-850q0 -33 -22.5 -56.5t-55.5 -23.5 t-56 23.5t-23 56.5v850h-86q-29 0 -48.5 20t-19.5 49z" />
<glyph unicode="g" horiz-adv-x="1359" d="M115 578v4q0 112 42 207.5t112 158.5t159 98t184 35q255 0 414 -213v121q0 33 22.5 56.5t55.5 23.5t56.5 -23.5t23.5 -56.5v-805q0 -239 -135 -374q-142 -142 -404 -142q-239 0 -442 125q-41 20 -41 66q0 26 21.5 47.5t49.5 21.5q18 0 35 -10q172 -115 375 -115 q179 0 282 97.5t103 279.5v125q-167 -223 -416 -223q-96 0 -185 35t-158.5 98t-111.5 157.5t-42 205.5zM276 582q0 -156 108 -258.5t259 -102.5q156 0 272.5 102t116.5 257v4q0 157 -116 257.5t-273 100.5q-155 0 -261 -98.5t-106 -257.5v-4z" />
<glyph unicode="h" horiz-adv-x="1261" d="M176 70v1355q0 32 23 56t55 24q33 0 56.5 -23.5t23.5 -56.5v-551q126 207 362 207q189 0 297.5 -116t108.5 -308v-587q0 -34 -23 -57t-55 -23q-34 0 -57 23t-23 57v548q0 149 -77.5 234.5t-215.5 85.5t-227.5 -92t-89.5 -240v-536q0 -34 -22 -57t-56 -23t-57 23t-23 57z " />
<glyph unicode="i" horiz-adv-x="538" d="M176 1364v27q0 37 26.5 60.5t65.5 23.5q40 0 67 -23t27 -61v-27q0 -36 -27 -60t-67 -24q-39 0 -65.5 24t-26.5 60zM190 70v919q0 32 23 56t55 24q34 0 57 -23t23 -57v-919q0 -34 -22 -57t-56 -23t-57 23t-23 57z" />
<glyph unicode="j" horiz-adv-x="538" d="M-20 -264q0 27 19 46t46 19q6 0 18 -1t17 -1q51 0 80.5 34t29.5 101v1055q0 32 23 56t55 24q34 0 57 -23t23 -57v-1050q0 -136 -66.5 -204.5t-185.5 -68.5q-27 0 -37 2q-35 2 -57 19.5t-22 48.5zM176 1364v27q0 37 26.5 60.5t65.5 23.5q40 0 67 -23t27 -61v-27 q0 -36 -27 -60t-67 -24q-39 0 -65.5 24t-26.5 60z" />
<glyph unicode="k" horiz-adv-x="1163" d="M176 70v1355q0 32 23 56t55 24q33 0 56.5 -23.5t23.5 -56.5v-970l573 583q28 31 62 31q31 0 51 -22t20 -52q0 -31 -30 -61l-346 -340l378 -477q21 -27 21 -54q0 -32 -21.5 -52.5t-54.5 -20.5q-40 0 -67 37l-367 462l-219 -217v-202q0 -34 -22 -57t-56 -23t-57 23t-23 57z " />
<glyph unicode="l" horiz-adv-x="538" d="M190 70v1355q0 32 23 56t55 24q33 0 56.5 -23.5t23.5 -56.5v-1355q0 -34 -22 -57t-56 -23t-57 23t-23 57z" />
<glyph unicode="m" horiz-adv-x="1947" d="M176 70v919q0 32 23 56t55 24q34 0 57 -23t23 -57v-108q29 44 58.5 76t71 62t95 46t117.5 16q123 0 208.5 -57.5t131.5 -153.5q137 211 373 211q183 0 288 -114.5t105 -311.5v-585q0 -34 -23 -57t-55 -23q-34 0 -57 23t-23 57v548q0 153 -72 236.5t-202 83.5 q-125 0 -208 -88t-83 -240v-540q0 -34 -23 -57t-57 -23q-32 0 -55 23t-23 57v553q0 148 -72.5 231.5t-199.5 83.5t-211 -94.5t-84 -239.5v-534q0 -34 -22 -57t-56 -23t-57 23t-23 57z" />
<glyph unicode="n" horiz-adv-x="1261" d="M176 70v919q0 32 23 56t55 24q34 0 57 -23t23 -57v-115q126 207 362 207q189 0 297.5 -116t108.5 -308v-587q0 -34 -23 -57t-55 -23q-34 0 -57 23t-23 57v548q0 149 -77.5 234.5t-215.5 85.5t-227.5 -92t-89.5 -240v-536q0 -34 -22 -57t-56 -23t-57 23t-23 57z" />
<glyph unicode="o" horiz-adv-x="1323" d="M111 524v4q0 149 71 275.5t198.5 202t283.5 75.5q116 0 219 -44t175 -118t114 -175t42 -212v-4q0 -148 -71.5 -275t-199.5 -202.5t-284 -75.5q-116 0 -219 44t-174.5 118t-113 175t-41.5 212zM272 528q0 -171 113 -291t279 -120q169 0 279 118.5t110 288.5v4 q0 172 -114 293t-280 121q-112 0 -201 -56t-137.5 -149.5t-48.5 -204.5v-4z" />
<glyph unicode="p" horiz-adv-x="1359" d="M176 -258v1247q0 34 23 57t55 23q34 0 57 -23t23 -57v-143q159 235 405 235q77 0 150.5 -23.5t137.5 -70t113 -111.5t77 -154t28 -190v-4q0 -126 -43 -231.5t-114 -174.5t-161.5 -107t-187.5 -38q-249 0 -405 226v-461q0 -34 -22 -57t-56 -23t-57 23t-23 57zM328 528 q0 -90 32 -167.5t85.5 -129.5t122.5 -82t143 -30q159 0 265.5 110t106.5 297v4q0 183 -108.5 296.5t-263.5 113.5q-153 0 -268 -116t-115 -292v-4z" />
<glyph unicode="q" horiz-adv-x="1359" d="M115 526v4q0 125 43 231t114.5 175t162 107t186.5 38q250 0 405 -225v133q0 33 22.5 56.5t55.5 23.5t56.5 -23.5t23.5 -56.5v-1247q0 -34 -23 -57t-55 -23q-34 0 -57 23t-23 57v471q-160 -236 -405 -236q-77 0 -150.5 23.5t-137.5 70t-113 111.5t-77 154t-28 190z M276 528q0 -182 109.5 -295.5t263.5 -113.5q153 0 268 116t115 293v4q0 177 -115 292.5t-268 115.5q-159 0 -266 -110.5t-107 -297.5v-4z" />
<glyph unicode="r" horiz-adv-x="829" d="M176 70v919q0 32 23 56t55 24q34 0 57 -23t23 -57v-198q57 129 159 205.5t205 76.5q35 0 56.5 -23t21.5 -57q0 -32 -19 -53.5t-50 -26.5q-164 -20 -268.5 -142.5t-104.5 -340.5v-360q0 -33 -22.5 -56.5t-55.5 -23.5q-34 0 -57 23t-23 57z" />
<glyph unicode="s" horiz-adv-x="1019" d="M90 170q0 28 20.5 48t49.5 20q23 0 39 -13q165 -112 336 -112q96 0 157.5 46t61.5 122v4q0 31 -15 56.5t-37 43t-60.5 34.5t-70.5 27.5t-82 24.5q-45 13 -72.5 21.5t-68.5 24t-67 30.5t-56 38t-46.5 48.5t-28 60.5t-11.5 76v4q0 135 101.5 219t259.5 84q171 0 338 -90 q39 -23 39 -65q0 -28 -20.5 -48t-49.5 -20q-19 0 -35 8q-145 82 -276 82q-93 0 -149 -43t-56 -110v-5q0 -24 9 -44.5t31.5 -38t41.5 -29.5t58 -26.5t61.5 -21.5t70.5 -22q60 -18 100 -32.5t89.5 -40.5t79 -55.5t50.5 -74.5t21 -100v-4q0 -147 -107 -232t-270 -85 q-104 0 -212 35.5t-195 97.5q-29 21 -29 57z" />
<glyph unicode="t" horiz-adv-x="827" d="M76 989q0 29 20.5 49.5t48.5 20.5h86v250q0 33 22.5 56.5t55.5 23.5q32 0 56 -24t24 -56v-250h275q29 0 50 -21t21 -49q0 -29 -21 -49t-50 -20h-275v-619q0 -176 178 -176q33 0 64.5 7t32.5 7q28 0 47.5 -19.5t19.5 -47.5q0 -45 -45 -62q-70 -28 -156 -28 q-136 0 -217.5 73t-81.5 226v639h-86q-28 0 -48.5 20.5t-20.5 48.5z" />
<glyph unicode="u" horiz-adv-x="1261" d="M160 401v588q0 34 22 57t56 23q32 0 55.5 -23.5t23.5 -56.5v-549q0 -149 77 -234t216 -85q137 0 227.5 92.5t90.5 239.5v536q0 34 22 57t56 23q32 0 54.5 -23t22.5 -57v-919q0 -33 -22 -56.5t-55 -23.5q-32 0 -55 23t-23 57v114q-130 -207 -363 -207q-189 0 -297 116 t-108 308z" />
<glyph unicode="v" horiz-adv-x="1196" d="M96 991q0 31 23.5 54.5t56.5 23.5q59 0 80 -61l342 -828l348 832q18 57 74 57q32 0 55 -23t23 -55q0 -19 -8 -39l-400 -901q-29 -67 -88 -67h-8q-61 0 -90 67l-398 897q-10 35 -10 43z" />
<glyph unicode="w" horiz-adv-x="1757" d="M102 993q0 30 23 53t57 23q60 0 80 -65l266 -795l269 797q20 63 77 63h9q62 0 82 -63l266 -797l270 799q18 61 76 61q33 0 55.5 -22t22.5 -52q0 -13 -10 -43l-324 -897q-24 -71 -86 -71h-6q-65 0 -86 71l-264 772l-267 -772q-21 -71 -86 -71h-4q-64 0 -88 71l-321 895 q-11 33 -11 43z" />
<glyph unicode="x" horiz-adv-x="1169" d="M123 61q0 32 20 52l346 426l-325 399q-25 28 -25 57q0 33 21.5 53.5t52.5 20.5q41 0 70 -37l305 -387l303 385q31 39 67 39q31 0 51.5 -20.5t20.5 -51.5q0 -28 -20 -51l-330 -403l344 -422q23 -30 23 -58q0 -32 -21.5 -52.5t-52.5 -20.5q-41 0 -70 37l-321 407l-320 -405 q-31 -39 -67 -39q-31 0 -51.5 21t-20.5 50z" />
<glyph unicode="y" horiz-adv-x="1202" d="M96 991q0 32 23 55t57 23q56 0 80 -61l369 -832l327 834q21 59 76 59q32 0 55 -23t23 -55q0 -15 -8 -39l-414 -987q-68 -162 -150.5 -230.5t-203.5 -68.5q-83 0 -174 31q-50 20 -50 67q0 29 20.5 48.5t47.5 19.5q15 0 39 -8q59 -19 115 -19q72 0 120.5 44.5t92.5 144.5 l8 16l-443 938q-10 23 -10 43z" />
<glyph unicode="z" horiz-adv-x="1138" d="M115 63v5q0 36 32 71l670 787h-618q-28 0 -48 19t-20 46q0 28 20 48t48 20h755q32 0 54 -19t22 -45v-4q0 -35 -33 -71l-669 -787h645q28 0 47.5 -19.5t19.5 -45.5q0 -28 -19.5 -48t-47.5 -20h-783q-31 0 -53 18.5t-22 44.5z" />
<glyph unicode="{" horiz-adv-x="989" d="M104 588q0 26 19.5 43t52.5 18q131 1 182.5 61.5t51.5 184.5q0 18 -1 79.5t-1 76.5q0 83 16.5 142t60.5 111t125 89t205 63q28 6 49 -9t21 -42q0 -20 -11.5 -34t-25.5 -19q-79 -22 -130.5 -45t-84 -47.5t-49 -60.5t-22 -73.5t-5.5 -95.5q0 -20 1 -75.5t1 -77.5 q0 -123 -54 -189.5t-159 -99.5q109 -36 161 -101t52 -188q0 -22 -1 -78t-1 -76q0 -73 9 -116t39 -83t87.5 -67.5t155.5 -54.5q14 -5 25.5 -19t11.5 -34q0 -27 -21 -42.5t-49 -9.5q-124 26 -205 63t-125 89.5t-60.5 111.5t-16.5 142q0 15 1 76.5t1 79.5q0 124 -51.5 184 t-182.5 61q-33 1 -52.5 18t-19.5 44z" />
<glyph unicode="|" horiz-adv-x="620" d="M244 -205v1782q0 28 19.5 48t47.5 20q26 0 46 -20t20 -48v-1782q0 -27 -19.5 -47t-46.5 -20q-28 0 -47.5 19.5t-19.5 47.5z" />
<glyph unicode="}" horiz-adv-x="989" d="M104 -229q0 20 11.5 34t25.5 19q97 27 154.5 54.5t88 67.5t39.5 83t9 116q0 20 -1 76t-1 78q0 123 54 189.5t159 99.5q-109 36 -161 101t-52 188q0 22 1 77.5t1 75.5q0 58 -5.5 95.5t-22.5 73.5t-49.5 60.5t-84 47.5t-129.5 45q-14 5 -25.5 19t-11.5 34q0 28 20.5 42.5 t49.5 8.5q123 -26 204 -63t125.5 -89t61.5 -111t17 -142q0 -15 -1 -76.5t-1 -79.5q0 -124 50.5 -184.5t182.5 -61.5q33 -1 51.5 -17.5t18.5 -43.5t-18.5 -44t-51.5 -18q-132 -1 -182.5 -61t-50.5 -184q0 -18 1 -79.5t1 -76.5q0 -83 -17 -142t-61.5 -111.5t-125.5 -89.5 t-204 -63q-29 -6 -49.5 9t-20.5 43z" />
<glyph unicode="~" horiz-adv-x="970" d="M158 528q0 21 6 33q31 90 72.5 129t107.5 39q47 0 143.5 -42t130.5 -42q33 0 53 17t40 57q21 33 49 33q22 0 36.5 -13.5t14.5 -33.5q0 -17 -4 -33q-31 -89 -73 -128.5t-107 -39.5q-49 0 -146 42t-129 42q-34 0 -54 -17t-40 -57q-16 -33 -49 -33q-21 0 -36 13.5t-15 33.5z " />
<glyph unicode="&#xa1;" horiz-adv-x="555" d="M180 1305v43q0 40 28.5 68t70.5 28q41 0 68.5 -28t27.5 -68v-43q0 -41 -27.5 -69t-68.5 -28q-43 0 -71 28t-28 69zM182 59l47 930q2 20 16 33.5t34 13.5q19 0 32 -13.5t15 -33.5l47 -930q2 -28 -15 -46.5t-45 -18.5h-71q-26 0 -43.5 18.5t-16.5 46.5z" />
<glyph unicode="&#xa2;" horiz-adv-x="1189" d="M119 723v4q0 148 71 275t196.5 202.5t275.5 75.5h26l23 123q5 22 22.5 37.5t42.5 15.5q31 0 50 -24.5t12 -57.5l-23 -114q118 -33 238 -136q26 -26 26 -57q0 -32 -21 -54t-52 -22t-52 21q-90 80 -174 108l-155 -803q14 -2 43 -2q161 0 297 129q21 21 49 21q27 0 47 -21 t20 -49q0 -30 -22 -49q-169 -172 -400 -172q-37 0 -55 2l-29 -145q-5 -22 -21.5 -38t-41.5 -16q-31 0 -50.5 24.5t-12.5 57.5l28 146q-161 57 -259.5 199t-98.5 319zM279 727q0 -128 63.5 -230.5t169.5 -150.5l152 793h-7q-159 0 -268.5 -118.5t-109.5 -289.5v-4z" />
<glyph unicode="&#xa3;" horiz-adv-x="1318" d="M129 51q0 39 41 51l139 35v467h-108q-29 0 -50.5 20.5t-21.5 49.5t21.5 50t50.5 21h108v222q0 235 129 364q123 123 324 123q136 0 232 -47.5t171 -132.5q25 -29 25 -60q0 -33 -23 -55t-57 -22q-33 0 -59 26q-62 70 -128.5 106t-162.5 36q-122 0 -201 -76 q-88 -91 -88 -262v-222h510q29 0 50.5 -21t21.5 -50t-21.5 -49.5t-50.5 -20.5h-510v-461h664q29 0 51 -21t22 -50q0 -30 -21.5 -51t-51.5 -21h-953q-23 0 -38 14.5t-15 36.5z" />
<glyph unicode="&#xa5;" horiz-adv-x="1404" d="M106 1366q0 31 23.5 54.5t56.5 23.5q48 0 76 -49l443 -660l444 662q31 47 76 47q31 0 53 -22t22 -54q0 -23 -20 -59l-453 -637h320q25 0 44 -19t19 -45t-19 -44.5t-44 -18.5h-367v-180h367q25 0 44 -19t19 -45t-19 -44.5t-44 -18.5h-367v-168q0 -34 -23 -57t-55 -23 t-54.5 23t-22.5 57v168h-367q-25 0 -44 18.5t-19 44.5t19 45t44 19h367v180h-367q-25 0 -44 18.5t-19 44.5t19 45t44 19h315l-448 637q-19 32 -19 57z" />
<glyph unicode="&#xa7;" horiz-adv-x="1294" d="M127 733v4q0 91 73 152t197 82q-71 36 -111 89.5t-40 117.5v4q0 123 103 197.5t274 74.5q124 0 236 -42.5t198 -117.5q24 -21 24 -55q0 -31 -20.5 -51.5t-50.5 -20.5q-28 0 -52 21q-148 131 -340 131q-102 0 -156 -37t-54 -98v-4q0 -59 73 -101.5t260 -87.5 q234 -56 330 -121t96 -170v-4q0 -90 -73.5 -151t-196.5 -82q71 -35 111.5 -88.5t40.5 -118.5v-4q0 -123 -103 -197.5t-274 -74.5q-124 0 -236 42.5t-198 116.5q-25 21 -25 56q0 30 21 50.5t51 20.5q28 0 51 -20q148 -131 340 -131q103 0 157 37.5t54 97.5v4 q0 58 -74.5 101.5t-259.5 86.5q-233 56 -329.5 121.5t-96.5 169.5zM279 750q0 -54 64.5 -97t225.5 -82q125 -32 224 -32q98 0 160.5 41.5t62.5 99.5v4q0 54 -65 96.5t-226 81.5q-132 33 -223 33q-98 0 -160.5 -41.5t-62.5 -99.5v-4z" />
<glyph unicode="&#xa8;" horiz-adv-x="1024" d="M233 1300v31q0 39 28.5 65.5t68.5 26.5t68 -26.5t28 -65.5v-31q0 -39 -28 -65.5t-68 -26.5t-68.5 26.5t-28.5 65.5zM598 1300v31q0 39 28 65.5t68 26.5t68.5 -26.5t28.5 -65.5v-31q0 -39 -28.5 -65.5t-68.5 -26.5t-68 26.5t-28 65.5z" />
<glyph unicode="&#xa9;" horiz-adv-x="1699" d="M109 713v4q0 149 58 285.5t157 236.5t237 159.5t291 59.5t290.5 -59t235.5 -158t155.5 -235t57.5 -285v-4q0 -149 -58 -285.5t-157 -237t-237 -160t-291 -59.5t-290.5 59t-235.5 158.5t-155.5 235.5t-57.5 285zM176 713q0 -184 87.5 -338.5t242 -245t342.5 -90.5 q141 0 267.5 54t215.5 145.5t141 216.5t52 262v4q0 184 -87.5 338.5t-242 245t-342.5 90.5q-141 0 -267.5 -54t-215.5 -145.5t-141 -216.5t-52 -262v-4zM477 725v4q0 162 110.5 276.5t274.5 114.5q149 0 264 -96q25 -21 25 -47q0 -23 -17 -39t-40 -16q-15 0 -39 16 q-94 80 -195 80q-114 0 -191 -84t-77 -203v-4q0 -119 78.5 -204t191.5 -85q61 0 108.5 20.5t96.5 63.5q17 13 35 13q22 0 37.5 -15t15.5 -37q0 -25 -18 -39q-63 -55 -127 -82.5t-152 -27.5q-161 0 -271 114t-110 277z" />
<glyph unicode="&#xaa;" horiz-adv-x="798" d="M111 639q0 20 14 34.5t33 14.5h454q19 0 33 -14.5t14 -34.5t-14 -33.5t-33 -13.5h-454q-19 0 -33 13.5t-14 33.5zM125 1020v4q0 90 69.5 140t182.5 50q81 0 164 -22v10q0 70 -42 108t-118 38q-57 0 -139 -31q-15 -6 -27 -6q-19 0 -32 12.5t-13 32.5q0 29 31 43 q90 41 190 41q122 0 191 -66q59 -59 59 -172v-315q0 -20 -15.5 -34.5t-35.5 -14.5t-34.5 13.5t-14.5 33.5v41q-74 -90 -197 -90q-89 0 -154 48.5t-65 135.5zM231 1024q0 -48 37.5 -75t93.5 -27q74 0 126.5 40t52.5 103v49q-79 23 -156 23q-71 0 -112.5 -30.5t-41.5 -78.5v-4 z" />
<glyph unicode="&#xab;" horiz-adv-x="1126" d="M111 530q0 26 24 56l271 352q23 33 59 33q28 0 47.5 -19t19.5 -47q0 -24 -18 -49l-242 -324l244 -331q16 -22 16 -47q0 -28 -19.5 -48t-47.5 -20q-31 0 -57 33l-273 354q-24 30 -24 57zM565 530q0 25 25 56l272 352q23 33 60 33q28 0 46.5 -19t18.5 -47q0 -24 -18 -49 l-242 -324l244 -331q16 -21 16 -47q0 -28 -19 -48t-46 -20q-36 0 -58 33l-274 354q-25 31 -25 57z" />
<glyph unicode="&#xad;" horiz-adv-x="835" d="M123 616q0 33 24.5 57.5t57.5 24.5h426q33 0 57.5 -24.5t24.5 -57.5q0 -34 -24 -59t-58 -25h-426q-34 0 -58 25t-24 59z" />
<glyph unicode="&#xae;" horiz-adv-x="825" d="M57 1094v2q0 147 104.5 252.5t252.5 105.5q150 0 253 -104.5t103 -251.5v-2q0 -147 -104 -253t-252 -106q-150 0 -253.5 105t-103.5 252zM98 1094q0 -132 91 -225t225 -93q132 0 223.5 94t91.5 226v2q0 132 -90.5 224.5t-224.5 92.5q-133 0 -224.5 -94t-91.5 -225v-2z M274 950v299q0 14 10 24.5t25 10.5h129q62 0 101 -30t39 -85q0 -83 -80 -112l69 -82q11 -14 11 -27q0 -14 -10 -24.5t-23 -10.5q-18 0 -33 19l-94 115h-74v-97q0 -15 -10.5 -26t-24.5 -11q-15 0 -25 11t-10 26zM344 1104h88q35 0 54.5 16t19.5 43q0 60 -74 60h-88v-119z" />
<glyph unicode="&#xaf;" horiz-adv-x="1024" d="M176 1325q0 27 19.5 46.5t46.5 19.5h540q27 0 46.5 -19.5t19.5 -46.5t-19 -46t-47 -19h-540q-28 0 -47 19t-19 46z" />
<glyph unicode="&#xb0;" horiz-adv-x="937" d="M147 1130v5q0 125 97.5 218t224.5 93t224.5 -93t97.5 -218v-5q0 -124 -97.5 -217.5t-224.5 -93.5t-224.5 93.5t-97.5 217.5zM266 1130q0 -82 58.5 -143t144.5 -61t144.5 61t58.5 143v5q0 82 -58.5 143t-144.5 61t-144.5 -61t-58.5 -143v-5z" />
<glyph unicode="&#xb1;" horiz-adv-x="1280" d="M147 72q0 28 21.5 48.5t50.5 20.5h844q29 0 49.5 -20.5t20.5 -48.5q0 -29 -20.5 -50.5t-49.5 -21.5h-844q-29 0 -50.5 21.5t-21.5 50.5zM147 817q0 29 21.5 50.5t50.5 21.5h346v336q0 31 22 53t54 22q31 0 52.5 -22t21.5 -53v-336h346q29 0 50.5 -21.5t21.5 -50.5 t-21.5 -50.5t-50.5 -21.5h-346v-335q0 -31 -21.5 -53.5t-52.5 -22.5q-32 0 -54 22.5t-22 53.5v335h-346q-29 0 -50.5 21.5t-21.5 50.5z" />
<glyph unicode="&#xb4;" horiz-adv-x="1024" d="M393 1239q0 18 10 31l123 186q30 47 74 47q37 0 74 -20t37 -41q0 -18 -29 -47l-154 -146q-24 -24 -44.5 -31.5t-51.5 -7.5q-17 0 -28 8.5t-11 20.5z" />
<glyph unicode="&#xb6;" horiz-adv-x="1044" d="M98 985v4q0 206 149.5 325.5t391.5 119.5h135q34 0 58 -24t24 -58v-1280q0 -34 -23 -58t-57 -24q-35 0 -59.5 24t-24.5 58v469h-22q-164 0 -292 50.5t-204 152t-76 241.5z" />
<glyph unicode="&#xb7;" horiz-adv-x="501" d="M154 596v41q0 41 28.5 68.5t69.5 27.5q40 0 68 -27.5t28 -68.5v-41q0 -41 -28 -68.5t-68 -27.5q-41 0 -69.5 27.5t-28.5 68.5z" />
<glyph unicode="&#xb8;" horiz-adv-x="1024" d="M326 -240q0 16 12 37l154 223h124l-129 -278q-12 -24 -25.5 -35.5t-37.5 -11.5q-31 0 -64.5 21.5t-33.5 43.5z" />
<glyph unicode="&#xba;" horiz-adv-x="798" d="M94 639q0 20 14.5 34.5t34.5 14.5h512q20 0 35 -14.5t15 -34.5t-14.5 -33.5t-35.5 -13.5h-512q-20 0 -34.5 13.5t-14.5 33.5zM98 1135v4q0 126 87 215.5t216 89.5q127 0 213 -88t86 -213v-4q0 -126 -87 -215.5t-216 -89.5q-127 0 -213 88t-86 213zM209 1139 q0 -86 55 -146.5t137 -60.5q83 0 136 59t53 144v4q0 87 -55 147t-138 60t-135.5 -59t-52.5 -144v-4z" />
<glyph unicode="&#xbb;" horiz-adv-x="1126" d="M139 154q0 24 19 47l241 325l-243 332q-19 30 -17 47q0 28 19.5 47t48.5 19q34 0 55 -31l275 -356q24 -30 24 -56q0 -25 -24 -55l-271 -352q-28 -35 -61 -35q-28 0 -47 20t-19 48zM594 154q0 25 18 47l244 325l-244 332q-18 21 -18 47q0 28 20 47t48 19q33 0 57 -31 l274 -356q23 -33 23 -56q0 -22 -23 -55l-272 -352q-25 -35 -59 -35q-28 0 -48 20t-20 48z" />
<glyph unicode="&#xbf;" horiz-adv-x="1099" d="M98 387v4q0 93 33.5 168t93 124.5t134.5 80t165 43.5l15 176q1 25 16 40t37 15h6q22 0 37 -15t18 -40l21 -229q4 -29 -12.5 -49t-47.5 -23q-165 -12 -258.5 -85.5t-93.5 -199.5v-4q0 -113 82 -189.5t217 -76.5q188 0 338 160q26 22 55 22q30 0 51 -20.5t21 -50.5 q0 -34 -22 -56q-183 -200 -447 -200q-207 0 -333 114t-126 291zM500 1305v43q0 40 28 68t70 28q41 0 68.5 -28t27.5 -68v-43q0 -41 -27.5 -69t-68.5 -28q-42 0 -70 28t-28 69z" />
<glyph unicode="&#xc0;" horiz-adv-x="1605" d="M104 63q0 21 11 43l581 1272q32 72 103 72h8q71 0 100 -72l582 -1269q10 -23 10 -41q0 -32 -23 -55t-55 -23q-55 0 -80 59l-149 330h-786l-150 -334q-22 -55 -78 -55q-31 0 -52.5 21t-21.5 52zM469 526h659l-329 734zM526 1804q0 21 37 41.5t74 20.5q44 0 74 -47 l123 -187q10 -13 10 -30q0 -12 -11 -20.5t-28 -8.5q-31 0 -51.5 7.5t-44.5 31.5l-154 145q-29 29 -29 47z" />
<glyph unicode="&#xc1;" horiz-adv-x="1605" d="M104 63q0 21 11 43l581 1272q32 72 103 72h8q71 0 100 -72l582 -1269q10 -23 10 -41q0 -32 -23 -55t-55 -23q-55 0 -80 59l-149 330h-786l-150 -334q-22 -55 -78 -55q-31 0 -52.5 21t-21.5 52zM469 526h659l-329 734zM758 1602q0 17 10 30l123 187q30 47 74 47 q37 0 73.5 -20t36.5 -42q0 -19 -28 -47l-154 -145q-24 -24 -44.5 -31.5t-51.5 -7.5q-17 0 -28 8.5t-11 20.5z" />
<glyph unicode="&#xc2;" horiz-adv-x="1605" d="M104 63q0 21 11 43l581 1272q32 72 103 72h8q71 0 100 -72l582 -1269q10 -23 10 -41q0 -32 -23 -55t-55 -23q-55 0 -80 59l-149 330h-786l-150 -334q-22 -55 -78 -55q-31 0 -52.5 21t-21.5 52zM469 526h659l-329 734zM543 1602q0 10 14 34l143 176q20 24 37.5 35t44.5 11 h37q27 0 44.5 -11t37.5 -35l143 -176q15 -26 15 -34q0 -12 -11 -20.5t-28 -8.5q-32 0 -53.5 8t-46.5 31l-121 106l-121 -106q-25 -24 -46 -31.5t-52 -7.5q-17 0 -27 8.5t-10 20.5z" />
<glyph unicode="&#xc3;" horiz-adv-x="1605" d="M104 63q0 21 11 43l581 1272q32 72 103 72h8q71 0 100 -72l582 -1269q10 -23 10 -41q0 -32 -23 -55t-55 -23q-55 0 -80 59l-149 330h-786l-150 -334q-22 -55 -78 -55q-31 0 -52.5 21t-21.5 52zM469 526h659l-329 734zM481 1606q0 8 6 32q31 89 73 127.5t108 38.5 q49 0 145.5 -41t128.5 -41q34 0 54.5 16t39.5 56q18 35 47 35q22 0 38 -14.5t16 -34.5q0 -4 -1.5 -9.5t-3 -13t-2.5 -10.5q-31 -89 -72.5 -127.5t-107.5 -38.5q-49 0 -145.5 41t-128.5 41q-34 0 -54.5 -16t-39.5 -56q-18 -35 -47 -35q-22 0 -38 15t-16 35z" />
<glyph unicode="&#xc4;" horiz-adv-x="1605" d="M104 63q0 21 11 43l581 1272q32 72 103 72h8q71 0 100 -72l582 -1269q10 -23 10 -41q0 -32 -23 -55t-55 -23q-55 0 -80 59l-149 330h-786l-150 -334q-22 -55 -78 -55q-31 0 -52.5 21t-21.5 52zM469 526h659l-329 734zM522 1663v31q0 39 28 65.5t68 26.5t68.5 -26.5 t28.5 -65.5v-31q0 -39 -28.5 -65.5t-68.5 -26.5t-68 26.5t-28 65.5zM887 1663v31q0 39 28 65.5t68 26.5t68 -26.5t28 -65.5v-31q0 -39 -28 -65.5t-68 -26.5t-68 26.5t-28 65.5z" />
<glyph unicode="&#xc5;" horiz-adv-x="1617" d="M111 66q0 10 8 34l590 1293q-51 25 -82 72.5t-31 103.5v4q0 83 64 143t149 60t149 -60t64 -143v-4q0 -56 -31 -103.5t-82 -72.5l590 -1291q6 -18 6 -32q0 -31 -23.5 -55.5t-56.5 -24.5q-48 0 -77 59l-148 330h-788l-150 -334q-9 -24 -29 -39.5t-47 -15.5q-31 0 -53 23 t-22 53zM475 526h660l-328 734zM682 1569q0 -51 38 -88t89 -37t89 37t38 88v4q0 51 -37.5 88t-89.5 37t-89.5 -37t-37.5 -88v-4z" />
<glyph unicode="&#xc6;" horiz-adv-x="2140" d="M70 59q0 12 14 45l762 1276q33 54 90 54h1006q31 0 52 -21.5t21 -52.5t-21 -52.5t-52 -21.5h-773v-489h680q30 0 52 -22t22 -52q0 -31 -21.5 -52.5t-52.5 -21.5h-680v-502h783q31 0 52 -21t21 -52t-21 -52.5t-52 -21.5h-865q-34 0 -57.5 24t-23.5 58v297h-586l-207 -346 q-21 -43 -70 -43q-30 0 -51.5 20t-21.5 49zM506 526h500v764h-48z" />
<glyph unicode="&#xc7;" horiz-adv-x="1511" d="M139 713v4q0 151 54.5 287t149 236t230.5 159t291 59q163 0 283 -47.5t229 -138.5q33 -29 33 -66q0 -32 -25 -56t-57 -24q-25 0 -53 19q-90 80 -188.5 122t-223.5 42q-117 0 -220 -46t-176.5 -124t-116 -187t-42.5 -231v-4q0 -164 72.5 -299.5t200 -214t282.5 -78.5 q129 0 229.5 43t196.5 131q23 23 51 23q31 0 54.5 -23.5t23.5 -54.5q0 -36 -26 -58q-109 -99 -227 -152t-273 -59l-109 -233q-12 -24 -25.5 -35.5t-37.5 -11.5q-31 0 -64.5 21.5t-33.5 43.5q0 16 12 37l127 185q-179 23 -320.5 124.5t-221 260.5t-79.5 346z" />
<glyph unicode="&#xc8;" horiz-adv-x="1372" d="M203 82v1270q0 34 24 58t56 24h891q31 0 52 -21.5t21 -52.5t-21 -52.5t-52 -21.5h-809v-489h716q30 0 52 -22t22 -52q0 -31 -21.5 -52.5t-52.5 -21.5h-716v-502h819q31 0 52 -21t21 -52t-21 -52.5t-52 -21.5h-901q-32 0 -56 24t-24 58zM449 1784q0 21 36.5 41t73.5 20 q44 0 74 -47l123 -186q10 -13 10 -31q0 -12 -11 -20.5t-28 -8.5q-31 0 -51.5 7.5t-44.5 31.5l-154 146q-28 28 -28 47z" />
<glyph unicode="&#xc9;" horiz-adv-x="1372" d="M203 82v1270q0 34 24 58t56 24h891q31 0 52 -21.5t21 -52.5t-21 -52.5t-52 -21.5h-809v-489h716q30 0 52 -22t22 -52q0 -31 -21.5 -52.5t-52.5 -21.5h-716v-502h819q31 0 52 -21t21 -52t-21 -52.5t-52 -21.5h-901q-32 0 -56 24t-24 58zM680 1581q0 18 10 31l123 186 q30 47 74 47q37 0 73.5 -20t36.5 -41q0 -19 -28 -47l-154 -146q-24 -24 -44.5 -31.5t-51.5 -7.5q-17 0 -28 8.5t-11 20.5z" />
<glyph unicode="&#xca;" horiz-adv-x="1372" d="M203 82v1270q0 34 24 58t56 24h891q31 0 52 -21.5t21 -52.5t-21 -52.5t-52 -21.5h-809v-489h716q30 0 52 -22t22 -52q0 -31 -21.5 -52.5t-52.5 -21.5h-716v-502h819q31 0 52 -21t21 -52t-21 -52.5t-52 -21.5h-901q-32 0 -56 24t-24 58zM465 1581q0 11 14 35l144 176 q38 45 82 45h36q44 0 82 -45l144 -176q14 -24 14 -35q0 -12 -11 -20.5t-28 -8.5q-32 0 -53.5 8t-46.5 31l-121 107l-121 -107q-25 -24 -46 -31.5t-52 -7.5q-17 0 -27 8.5t-10 20.5z" />
<glyph unicode="&#xcb;" horiz-adv-x="1372" d="M203 82v1270q0 34 24 58t56 24h891q31 0 52 -21.5t21 -52.5t-21 -52.5t-52 -21.5h-809v-489h716q30 0 52 -22t22 -52q0 -31 -21.5 -52.5t-52.5 -21.5h-716v-502h819q31 0 52 -21t21 -52t-21 -52.5t-52 -21.5h-901q-32 0 -56 24t-24 58zM444 1642v31q0 39 28.5 65.5 t68.5 26.5t68 -26.5t28 -65.5v-31q0 -39 -28 -65.5t-68 -26.5t-68.5 26.5t-28.5 65.5zM809 1642v31q0 39 28 65.5t68 26.5t68 -26.5t28 -65.5v-31q0 -39 -28 -65.5t-68 -26.5t-68 26.5t-28 65.5z" />
<glyph unicode="&#xcc;" horiz-adv-x="595" d="M25 1784q0 21 36.5 41t73.5 20q44 0 74 -47l123 -186q10 -13 10 -31q0 -12 -11 -20.5t-28 -8.5q-31 0 -51.5 7.5t-44.5 31.5l-154 146q-28 28 -28 47zM217 72v1290q0 34 24 58t56 24q34 0 58 -24t24 -58v-1290q0 -34 -24 -58t-58 -24q-32 0 -56 24t-24 58z" />
<glyph unicode="&#xcd;" horiz-adv-x="595" d="M217 72v1290q0 34 24 58t56 24q34 0 58 -24t24 -58v-1290q0 -34 -24 -58t-58 -24q-32 0 -56 24t-24 58zM256 1581q0 18 10 31l123 186q30 47 74 47q37 0 73.5 -20t36.5 -41q0 -19 -28 -47l-154 -146q-24 -24 -44.5 -31.5t-51.5 -7.5q-17 0 -28 8.5t-11 20.5z" />
<glyph unicode="&#xce;" horiz-adv-x="595" d="M41 1581q0 11 14 35l144 176q38 45 82 45h36q44 0 82 -45l144 -176q14 -24 14 -35q0 -12 -11 -20.5t-28 -8.5q-32 0 -53.5 8t-46.5 31l-121 107l-121 -107q-25 -24 -46 -31.5t-52 -7.5q-17 0 -27 8.5t-10 20.5zM217 72v1290q0 34 24 58t56 24q34 0 58 -24t24 -58v-1290 q0 -34 -24 -58t-58 -24q-32 0 -56 24t-24 58z" />
<glyph unicode="&#xcf;" horiz-adv-x="595" d="M20 1642v31q0 39 28.5 65.5t68.5 26.5t68 -26.5t28 -65.5v-31q0 -39 -28 -65.5t-68 -26.5t-68.5 26.5t-28.5 65.5zM217 72v1290q0 34 24 58t56 24q34 0 58 -24t24 -58v-1290q0 -34 -24 -58t-58 -24q-32 0 -56 24t-24 58zM385 1642v31q0 39 28 65.5t68 26.5t68.5 -26.5 t28.5 -65.5v-31q0 -39 -28.5 -65.5t-68.5 -26.5t-68 26.5t-28 65.5z" />
<glyph unicode="&#xd0;" horiz-adv-x="1662" d="M100 721q0 31 21.5 52.5t52.5 21.5h90v557q0 34 24 58t56 24h418q166 0 309 -55t242 -150t155 -226.5t56 -281.5v-4q0 -150 -56 -282t-155 -228t-242 -151.5t-309 -55.5h-418q-32 0 -56 24t-24 58v565h-90q-31 0 -52.5 21.5t-21.5 52.5zM426 150h336q133 0 245 43.5 t188 119t118.5 179t42.5 221.5v4q0 118 -42.5 222t-118.5 180.5t-188 120.5t-245 44h-336v-489h367q29 0 51 -21.5t22 -52.5t-22 -52.5t-51 -21.5h-367v-497z" />
<glyph unicode="&#xd1;" horiz-adv-x="1617" d="M203 70v1290q0 32 24 56t56 24h22q45 0 82 -47l870 -1110v1081q0 33 23.5 56.5t56.5 23.5q32 0 55 -24t23 -56v-1294q0 -32 -21 -54t-53 -22h-8q-42 0 -84 49l-889 1137v-1110q0 -33 -23 -56.5t-56 -23.5q-32 0 -55 24t-23 56zM487 1585q0 5 7 33q31 89 72.5 127.5 t107.5 38.5q49 0 145.5 -41t128.5 -41q34 0 54.5 16t39.5 56q17 34 48 34q22 0 37.5 -14.5t15.5 -34.5q0 -3 -6 -33q-31 -89 -73 -127t-108 -38q-49 0 -145.5 40.5t-128.5 40.5q-34 0 -54.5 -16t-39.5 -55q-18 -35 -47 -35q-22 0 -38 14.5t-16 34.5z" />
<glyph unicode="&#xd2;" d="M139 713v4q0 147 54 282t148.5 236.5t233 162t297.5 60.5t297 -59.5t232 -160.5t147.5 -235.5t53.5 -281.5v-4q0 -118 -34 -229t-99 -203.5t-153.5 -162t-204 -108.5t-243.5 -39q-159 0 -297 60t-231.5 161t-147 235.5t-53.5 281.5zM307 717q0 -162 72 -297t202 -215 t291 -80t290 79t200.5 213t71.5 296v4q0 162 -72.5 297t-202.5 215t-291 80t-290 -79t-200 -213t-71 -296v-4zM596 1804q0 21 37 41.5t74 20.5q43 0 73 -47l123 -187q10 -13 10 -30q0 -12 -11 -20.5t-28 -8.5q-31 0 -51.5 7.5t-44.5 31.5l-153 145q-29 29 -29 47z" />
<glyph unicode="&#xd3;" d="M139 713v4q0 147 54 282t148.5 236.5t233 162t297.5 60.5t297 -59.5t232 -160.5t147.5 -235.5t53.5 -281.5v-4q0 -118 -34 -229t-99 -203.5t-153.5 -162t-204 -108.5t-243.5 -39q-159 0 -297 60t-231.5 161t-147 235.5t-53.5 281.5zM307 717q0 -162 72 -297t202 -215 t291 -80t290 79t200.5 213t71.5 296v4q0 162 -72.5 297t-202.5 215t-291 80t-290 -79t-200 -213t-71 -296v-4zM825 1602q0 15 11 30l122 187q30 47 74 47q37 0 74 -20.5t37 -41.5q0 -18 -29 -47l-153 -145q-23 -23 -44.5 -31t-52.5 -8q-17 0 -28 8.5t-11 20.5z" />
<glyph unicode="&#xd4;" d="M139 713v4q0 147 54 282t148.5 236.5t233 162t297.5 60.5t297 -59.5t232 -160.5t147.5 -235.5t53.5 -281.5v-4q0 -118 -34 -229t-99 -203.5t-153.5 -162t-204 -108.5t-243.5 -39q-159 0 -297 60t-231.5 161t-147 235.5t-53.5 281.5zM307 717q0 -162 72 -297t202 -215 t291 -80t290 79t200.5 213t71.5 296v4q0 162 -72.5 297t-202.5 215t-291 80t-290 -79t-200 -213t-71 -296v-4zM612 1602q0 8 15 34l143 176q20 24 37.5 35t44.5 11h37q27 0 44.5 -11t37.5 -35l143 -176q14 -25 14 -34q0 -12 -10.5 -20.5t-27.5 -8.5q-60 0 -101 39l-121 106 l-120 -106q-25 -24 -46.5 -31.5t-52.5 -7.5q-17 0 -27 8.5t-10 20.5z" />
<glyph unicode="&#xd5;" d="M139 713v4q0 147 54 282t148.5 236.5t233 162t297.5 60.5t297 -59.5t232 -160.5t147.5 -235.5t53.5 -281.5v-4q0 -118 -34 -229t-99 -203.5t-153.5 -162t-204 -108.5t-243.5 -39q-159 0 -297 60t-231.5 161t-147 235.5t-53.5 281.5zM307 717q0 -162 72 -297t202 -215 t291 -80t290 79t200.5 213t71.5 296v4q0 162 -72.5 297t-202.5 215t-291 80t-290 -79t-200 -213t-71 -296v-4zM549 1606q0 8 6 32q31 89 72.5 127.5t107.5 38.5q49 0 146 -41t129 -41q34 0 54.5 16t39.5 56q18 35 47 35q22 0 37.5 -14.5t15.5 -34.5q0 -3 -6 -33 q-31 -89 -72.5 -127.5t-107.5 -38.5q-49 0 -146 41t-129 41q-34 0 -54.5 -16t-39.5 -56q-17 -35 -47 -35q-22 0 -37.5 15t-15.5 35z" />
<glyph unicode="&#xd6;" d="M139 713v4q0 147 54 282t148.5 236.5t233 162t297.5 60.5t297 -59.5t232 -160.5t147.5 -235.5t53.5 -281.5v-4q0 -118 -34 -229t-99 -203.5t-153.5 -162t-204 -108.5t-243.5 -39q-159 0 -297 60t-231.5 161t-147 235.5t-53.5 281.5zM307 717q0 -162 72 -297t202 -215 t291 -80t290 79t200.5 213t71.5 296v4q0 162 -72.5 297t-202.5 215t-291 80t-290 -79t-200 -213t-71 -296v-4zM592 1663v31q0 39 28 65.5t68 26.5t68 -26.5t28 -65.5v-31q0 -39 -28 -65.5t-68 -26.5t-68 26.5t-28 65.5zM956 1663v31q0 39 28.5 65.5t68.5 26.5t68 -26.5 t28 -65.5v-31q0 -39 -28 -65.5t-68 -26.5t-68.5 26.5t-28.5 65.5z" />
<glyph unicode="&#xd7;" horiz-adv-x="1280" d="M201 354q0 30 24 54l316 311l-316 309q-24 24 -24 57q0 31 22 52.5t53 21.5q32 0 56 -24l311 -316l311 318q22 22 54 22q29 0 50 -21.5t21 -50.5t-24 -53l-316 -311l316 -309q24 -24 24 -58q0 -31 -21 -52t-52 -21q-34 0 -58 24l-309 316l-311 -318q-25 -22 -56 -22 q-29 0 -50 21t-21 50z" />
<glyph unicode="&#xd8;" d="M139 713v4q0 147 54 282t148.5 236.5t233 162t297.5 60.5q264 0 459 -158l123 130q24 24 51 24t44.5 -17t17.5 -42q0 -28 -21 -49l-125 -134q87 -99 134 -225.5t47 -265.5v-4q0 -118 -34 -229t-99 -203.5t-153.5 -162t-204 -108.5t-243.5 -39q-261 0 -458 156l-123 -127 q-24 -24 -51 -24t-44.5 17t-17.5 42q0 28 21 49l122 131q-86 98 -132 226t-46 268zM307 717q0 -218 125 -377l793 842q-155 129 -357 129q-160 0 -289.5 -79.5t-200.5 -214t-71 -296.5v-4zM516 250q149 -127 356 -127q161 0 290 79.5t200.5 214t71.5 296.5v4q0 218 -125 377 z" />
<glyph unicode="&#xd9;" horiz-adv-x="1554" d="M180 600v762q0 34 24 58t56 24q34 0 58 -24t24 -58v-752q0 -230 116 -356.5t322 -126.5q202 0 317 121.5t115 351.5v762q0 34 24 58t58 24q32 0 56 -24t24 -58v-750q0 -307 -161.5 -471t-436.5 -164q-272 0 -434 162.5t-162 460.5zM502 1784q0 21 36.5 41t73.5 20 q44 0 74 -47l123 -186q10 -13 10 -31q0 -12 -11 -20.5t-28 -8.5q-31 0 -51.5 7.5t-44.5 31.5l-154 146q-28 28 -28 47z" />
<glyph unicode="&#xda;" horiz-adv-x="1554" d="M180 600v762q0 34 24 58t56 24q34 0 58 -24t24 -58v-752q0 -230 116 -356.5t322 -126.5q202 0 317 121.5t115 351.5v762q0 34 24 58t58 24q32 0 56 -24t24 -58v-750q0 -307 -161.5 -471t-436.5 -164q-272 0 -434 162.5t-162 460.5zM733 1581q0 18 10 31l123 186 q30 47 74 47q37 0 74 -20t37 -41q0 -18 -29 -47l-154 -146q-24 -24 -44.5 -31.5t-51.5 -7.5q-17 0 -28 8.5t-11 20.5z" />
<glyph unicode="&#xdb;" horiz-adv-x="1554" d="M180 600v762q0 34 24 58t56 24q34 0 58 -24t24 -58v-752q0 -230 116 -356.5t322 -126.5q202 0 317 121.5t115 351.5v762q0 34 24 58t58 24q32 0 56 -24t24 -58v-750q0 -307 -161.5 -471t-436.5 -164q-272 0 -434 162.5t-162 460.5zM518 1581q0 11 14 35l144 176 q38 45 82 45h37q44 0 82 -45l143 -176q14 -24 14 -35q0 -12 -11 -20.5t-28 -8.5q-32 0 -53.5 8t-46.5 31l-121 107l-121 -107q-25 -24 -46 -31.5t-52 -7.5q-17 0 -27 8.5t-10 20.5z" />
<glyph unicode="&#xdc;" horiz-adv-x="1554" d="M180 600v762q0 34 24 58t56 24q34 0 58 -24t24 -58v-752q0 -230 116 -356.5t322 -126.5q202 0 317 121.5t115 351.5v762q0 34 24 58t58 24q32 0 56 -24t24 -58v-750q0 -307 -161.5 -471t-436.5 -164q-272 0 -434 162.5t-162 460.5zM498 1642v31q0 39 28 65.5t68 26.5 t68 -26.5t28 -65.5v-31q0 -39 -28 -65.5t-68 -26.5t-68 26.5t-28 65.5zM862 1642v31q0 39 28 65.5t68 26.5t68.5 -26.5t28.5 -65.5v-31q0 -39 -28.5 -65.5t-68.5 -26.5t-68 26.5t-28 65.5z" />
<glyph unicode="&#xdd;" horiz-adv-x="1449" d="M92 1364q0 32 25 56t59 24q44 0 78 -49l473 -682l477 682q34 49 76 49q33 0 56.5 -23.5t23.5 -56.5q0 -22 -23 -59l-530 -738v-495q0 -34 -24 -58t-58 -24t-58 24t-24 58v491l-532 746q-19 30 -19 55zM682 1581q0 18 10 31l123 186q30 47 74 47q37 0 73.5 -20t36.5 -41 q0 -19 -28 -47l-154 -146q-24 -24 -44.5 -31.5t-51.5 -7.5q-17 0 -28 8.5t-11 20.5z" />
<glyph unicode="&#xde;" horiz-adv-x="1378" d="M203 72v1290q0 34 24 58t56 24q34 0 58 -24t24 -58v-174h374q244 0 390.5 -122.5t146.5 -332.5v-4q0 -113 -45 -203.5t-122.5 -148.5t-178.5 -88.5t-217 -30.5h-348v-186q0 -34 -24 -58t-58 -24q-32 0 -56 24t-24 58zM365 406h354q178 0 285.5 87.5t107.5 229.5v4 q0 150 -104 230.5t-281 80.5h-362v-632z" />
<glyph unicode="&#xdf;" horiz-adv-x="1269" d="M176 68v958q0 218 126 350.5t339 132.5q190 0 306 -105t116 -263v-4q0 -70 -24 -131.5t-65.5 -107t-90 -79t-105.5 -57.5q76 -17 140 -46t118 -72t84.5 -106.5t30.5 -140.5v-4q0 -94 -38.5 -169.5t-106.5 -124t-157 -75t-192 -28.5q-30 0 -49.5 18.5t-19.5 46.5 q0 26 17 44.5t44 23.5q157 11 248.5 77t91.5 187v4q0 112 -92 180t-244 93q-65 14 -65 71q0 49 47 70q266 108 266 315v4q0 106 -74 173t-194 67q-132 0 -215.5 -93.5t-83.5 -248.5v-960q0 -32 -23 -55t-57 -23q-33 0 -55.5 22.5t-22.5 55.5z" />
<glyph unicode="&#xe0;" horiz-adv-x="1185" d="M96 307v4q0 164 123.5 253t329.5 89q168 0 325 -45v37q0 141 -82 215t-233 74q-140 0 -274 -60q-15 -6 -29 -6q-28 0 -49 20t-21 48q0 23 13 40.5t30 24.5q166 72 346 72q226 0 343 -117q108 -108 108 -309v-579q0 -34 -22 -56t-54 -22q-33 0 -54.5 21t-21.5 52v97 q-141 -183 -382 -183q-102 0 -190 36t-147 113t-59 181zM256 313q0 -96 77 -153.5t189 -57.5q149 0 252 81.5t103 205.5v103q-153 45 -312 45q-147 0 -228 -59.5t-81 -160.5v-4zM319 1442q0 21 37 41t74 20q44 0 74 -47l123 -186q10 -13 10 -31q0 -12 -11 -20.5t-28 -8.5 q-31 0 -51.5 7.5t-44.5 31.5l-154 146q-29 29 -29 47z" />
<glyph unicode="&#xe1;" horiz-adv-x="1185" d="M96 307v4q0 164 123.5 253t329.5 89q168 0 325 -45v37q0 141 -82 215t-233 74q-140 0 -274 -60q-15 -6 -29 -6q-28 0 -49 20t-21 48q0 23 13 40.5t30 24.5q166 72 346 72q226 0 343 -117q108 -108 108 -309v-579q0 -34 -22 -56t-54 -22q-33 0 -54.5 21t-21.5 52v97 q-141 -183 -382 -183q-102 0 -190 36t-147 113t-59 181zM256 313q0 -96 77 -153.5t189 -57.5q149 0 252 81.5t103 205.5v103q-153 45 -312 45q-147 0 -228 -59.5t-81 -160.5v-4zM549 1239q0 18 10 31l123 186q30 47 74 47q37 0 73.5 -20t36.5 -41q0 -19 -28 -47l-154 -146 q-24 -24 -44.5 -31.5t-51.5 -7.5q-17 0 -28 8.5t-11 20.5z" />
<glyph unicode="&#xe2;" horiz-adv-x="1185" d="M96 307v4q0 164 123.5 253t329.5 89q168 0 325 -45v37q0 141 -82 215t-233 74q-140 0 -274 -60q-15 -6 -29 -6q-28 0 -49 20t-21 48q0 23 13 40.5t30 24.5q166 72 346 72q226 0 343 -117q108 -108 108 -309v-579q0 -34 -22 -56t-54 -22q-33 0 -54.5 21t-21.5 52v97 q-141 -183 -382 -183q-102 0 -190 36t-147 113t-59 181zM256 313q0 -96 77 -153.5t189 -57.5q149 0 252 81.5t103 205.5v103q-153 45 -312 45q-147 0 -228 -59.5t-81 -160.5v-4zM334 1239q0 11 14 35l144 176q20 24 37 34.5t44 10.5h37q44 0 82 -45l144 -176q14 -24 14 -35 q0 -12 -11 -20.5t-28 -8.5q-32 0 -53.5 8t-46.5 31l-121 107l-121 -107q-25 -24 -46 -31.5t-52 -7.5q-17 0 -27 8.5t-10 20.5z" />
<glyph unicode="&#xe3;" horiz-adv-x="1185" d="M96 307v4q0 164 123.5 253t329.5 89q168 0 325 -45v37q0 141 -82 215t-233 74q-140 0 -274 -60q-15 -6 -29 -6q-28 0 -49 20t-21 48q0 23 13 40.5t30 24.5q166 72 346 72q226 0 343 -117q108 -108 108 -309v-579q0 -34 -22 -56t-54 -22q-33 0 -54.5 21t-21.5 52v97 q-141 -183 -382 -183q-102 0 -190 36t-147 113t-59 181zM256 313q0 -96 77 -153.5t189 -57.5q149 0 252 81.5t103 205.5v103q-153 45 -312 45q-147 0 -228 -59.5t-81 -160.5v-4zM272 1243q0 5 7 33q31 89 72.5 127.5t107.5 38.5q49 0 145.5 -41t128.5 -41q34 0 54.5 16 t39.5 56q17 34 47 34q22 0 38 -14.5t16 -34.5q0 -3 -6 -33q-31 -89 -73 -127t-108 -38q-49 0 -145.5 40.5t-128.5 40.5q-34 0 -54.5 -16t-39.5 -55q-17 -35 -47 -35q-22 0 -38 14.5t-16 34.5z" />
<glyph unicode="&#xe4;" horiz-adv-x="1185" d="M96 307v4q0 164 123.5 253t329.5 89q168 0 325 -45v37q0 141 -82 215t-233 74q-140 0 -274 -60q-15 -6 -29 -6q-28 0 -49 20t-21 48q0 23 13 40.5t30 24.5q166 72 346 72q226 0 343 -117q108 -108 108 -309v-579q0 -34 -22 -56t-54 -22q-33 0 -54.5 21t-21.5 52v97 q-141 -183 -382 -183q-102 0 -190 36t-147 113t-59 181zM256 313q0 -96 77 -153.5t189 -57.5q149 0 252 81.5t103 205.5v103q-153 45 -312 45q-147 0 -228 -59.5t-81 -160.5v-4zM313 1300v31q0 39 28.5 65.5t68.5 26.5t68 -26.5t28 -65.5v-31q0 -39 -28 -65.5t-68 -26.5 t-68.5 26.5t-28.5 65.5zM678 1300v31q0 39 28 65.5t68 26.5t68 -26.5t28 -65.5v-31q0 -39 -28 -65.5t-68 -26.5t-68 26.5t-28 65.5z" />
<glyph unicode="&#xe5;" horiz-adv-x="1185" d="M96 307v4q0 164 123.5 253t329.5 89q168 0 325 -45v37q0 141 -82 215t-233 74q-140 0 -274 -60q-15 -6 -29 -6q-28 0 -49 20t-21 48q0 23 13 40.5t30 24.5q166 72 346 72q226 0 343 -117q108 -108 108 -309v-579q0 -34 -22 -56t-54 -22q-33 0 -54.5 21t-21.5 52v97 q-141 -183 -382 -183q-102 0 -190 36t-147 113t-59 181zM256 313q0 -96 77 -153.5t189 -57.5q149 0 252 81.5t103 205.5v103q-153 45 -312 45q-147 0 -228 -59.5t-81 -160.5v-4zM379 1417v4q0 83 64 143t149 60t149 -60t64 -143v-4q0 -83 -64 -143t-149 -60t-149 60t-64 143 zM465 1417q0 -51 38 -88t89 -37t89 37t38 88v4q0 51 -37.5 88t-89.5 37t-89.5 -37t-37.5 -88v-4z" />
<glyph unicode="&#xe6;" horiz-adv-x="1951" d="M96 307v4q0 163 122 252.5t323 89.5q156 0 313 -45v37q0 142 -79 215.5t-226 73.5q-131 0 -264 -60q-15 -6 -29 -6q-28 0 -49 20t-21 48q0 23 13 40.5t30 24.5q159 72 336 72q310 0 389 -227q64 109 170.5 172t235.5 63q91 0 170 -28.5t137.5 -79t100 -118t62.5 -147 t21 -163.5q0 -32 -22 -53t-53 -21h-764q15 -166 120 -262t250 -96q171 0 308 123q22 18 43 18q29 0 49 -20t20 -48q0 -29 -22 -51q-83 -78 -178.5 -119t-223.5 -41q-127 0 -238 56.5t-182 156.5q-204 -211 -462 -211q-78 0 -149 21.5t-127.5 61.5t-90 104t-33.5 143z M256 313q0 -95 74 -152t184 -57q214 0 381 189q-37 90 -43 201q-168 43 -295 43q-143 0 -222 -59.5t-79 -160.5v-4zM1010 588h682q-13 155 -100 257.5t-236 102.5q-138 0 -234.5 -101.5t-111.5 -258.5z" />
<glyph unicode="&#xe7;" horiz-adv-x="1169" d="M111 524v4q0 148 70.5 275t195.5 202.5t276 75.5q222 0 389 -153q25 -21 25 -56q0 -32 -22.5 -53.5t-53.5 -21.5q-29 0 -51 18q-66 60 -133.5 93.5t-155.5 33.5q-160 0 -269.5 -119.5t-109.5 -290.5v-4q0 -172 112.5 -291.5t277.5 -119.5q158 0 294 129q20 20 45 20 q29 0 50.5 -21.5t21.5 -49.5q0 -30 -20 -50q-160 -160 -369 -168l-109 -235q-12 -24 -25.5 -35.5t-37.5 -11.5q-31 0 -64.5 21.5t-33.5 43.5q0 16 12 37l129 189q-194 34 -319 186.5t-125 351.5z" />
<glyph unicode="&#xe8;" horiz-adv-x="1212" d="M111 526v4q0 151 65 277t181.5 200t260.5 74q114 0 208.5 -44t155.5 -118.5t94.5 -171t33.5 -202.5q0 -32 -22 -53t-52 -21h-766q17 -167 122 -262.5t251 -95.5q172 0 305 123q22 18 45 18q29 0 49.5 -20t20.5 -48q0 -29 -25 -51q-81 -78 -176 -119t-223 -41 q-145 0 -265 68.5t-191.5 195.5t-71.5 287zM270 588h682q-13 155 -100.5 257.5t-237.5 102.5q-137 0 -233 -101.5t-111 -258.5zM342 1442q0 21 37 41t74 20q43 0 73 -47l123 -186q10 -13 10 -31q0 -12 -10.5 -20.5t-27.5 -8.5q-31 0 -52.5 8t-44.5 31l-153 146 q-29 29 -29 47z" />
<glyph unicode="&#xe9;" horiz-adv-x="1212" d="M111 526v4q0 151 65 277t181.5 200t260.5 74q114 0 208.5 -44t155.5 -118.5t94.5 -171t33.5 -202.5q0 -32 -22 -53t-52 -21h-766q17 -167 122 -262.5t251 -95.5q172 0 305 123q22 18 45 18q29 0 49.5 -20t20.5 -48q0 -29 -25 -51q-81 -78 -176 -119t-223 -41 q-145 0 -265 68.5t-191.5 195.5t-71.5 287zM270 588h682q-13 155 -100.5 257.5t-237.5 102.5q-137 0 -233 -101.5t-111 -258.5zM573 1239q0 16 11 31l123 186q30 47 73 47q37 0 74 -20t37 -41q0 -18 -29 -47l-153 -146q-23 -23 -44.5 -31t-52.5 -8q-17 0 -28 8.5t-11 20.5z " />
<glyph unicode="&#xea;" horiz-adv-x="1212" d="M111 526v4q0 151 65 277t181.5 200t260.5 74q114 0 208.5 -44t155.5 -118.5t94.5 -171t33.5 -202.5q0 -32 -22 -53t-52 -21h-766q17 -167 122 -262.5t251 -95.5q172 0 305 123q22 18 45 18q29 0 49.5 -20t20.5 -48q0 -29 -25 -51q-81 -78 -176 -119t-223 -41 q-145 0 -265 68.5t-191.5 195.5t-71.5 287zM270 588h682q-13 155 -100.5 257.5t-237.5 102.5q-137 0 -233 -101.5t-111 -258.5zM358 1239q0 9 15 35l143 176q38 45 82 45h37q44 0 82 -45l143 -176q14 -24 14 -35q0 -12 -10.5 -20.5t-27.5 -8.5q-60 0 -101 39l-121 107 l-120 -107q-25 -24 -46.5 -31.5t-52.5 -7.5q-17 0 -27 8.5t-10 20.5z" />
<glyph unicode="&#xeb;" horiz-adv-x="1212" d="M111 526v4q0 151 65 277t181.5 200t260.5 74q114 0 208.5 -44t155.5 -118.5t94.5 -171t33.5 -202.5q0 -32 -22 -53t-52 -21h-766q17 -167 122 -262.5t251 -95.5q172 0 305 123q22 18 45 18q29 0 49.5 -20t20.5 -48q0 -29 -25 -51q-81 -78 -176 -119t-223 -41 q-145 0 -265 68.5t-191.5 195.5t-71.5 287zM270 588h682q-13 155 -100.5 257.5t-237.5 102.5q-137 0 -233 -101.5t-111 -258.5zM338 1300v31q0 39 28 65.5t68 26.5t68 -26.5t28 -65.5v-31q0 -39 -28 -65.5t-68 -26.5t-68 26.5t-28 65.5zM702 1300v31q0 39 28.5 65.5 t68.5 26.5t68 -26.5t28 -65.5v-31q0 -39 -28 -65.5t-68 -26.5t-68.5 26.5t-28.5 65.5z" />
<glyph unicode="&#xec;" horiz-adv-x="538" d="M-4 1442q0 21 36.5 41t73.5 20q44 0 74 -47l123 -186q10 -13 10 -31q0 -12 -11 -20.5t-28 -8.5q-31 0 -51.5 7.5t-44.5 31.5l-153 146q-29 29 -29 47zM190 70v919q0 32 23 56t55 24q34 0 57 -23t23 -57v-919q0 -34 -22 -57t-56 -23t-57 23t-23 57z" />
<glyph unicode="&#xed;" horiz-adv-x="538" d="M190 70v919q0 32 23 56t55 24q34 0 57 -23t23 -57v-919q0 -34 -22 -57t-56 -23t-57 23t-23 57zM227 1239q0 16 11 31l122 186q30 47 74 47q37 0 74 -20t37 -41q0 -18 -29 -47l-154 -146q-24 -24 -44.5 -31.5t-51.5 -7.5q-17 0 -28 8.5t-11 20.5z" />
<glyph unicode="&#xee;" horiz-adv-x="538" d="M12 1239q0 9 15 35l143 176q38 45 82 45h37q44 0 82 -45l143 -176q14 -24 14 -35q0 -12 -11 -20.5t-28 -8.5q-32 0 -53.5 8t-46.5 31l-121 107l-121 -107q-25 -24 -46 -31.5t-52 -7.5q-17 0 -27 8.5t-10 20.5zM190 70v919q0 32 23 56t55 24q34 0 57 -23t23 -57v-919 q0 -34 -22 -57t-56 -23t-57 23t-23 57z" />
<glyph unicode="&#xef;" horiz-adv-x="538" d="M-8 1300v31q0 39 28 65.5t68 26.5t68 -26.5t28 -65.5v-31q0 -39 -28 -65.5t-68 -26.5t-68 26.5t-28 65.5zM190 70v919q0 32 23 56t55 24q34 0 57 -23t23 -57v-919q0 -34 -22 -57t-56 -23t-57 23t-23 57zM356 1300v31q0 39 28.5 65.5t68.5 26.5t68 -26.5t28 -65.5v-31 q0 -39 -28 -65.5t-68 -26.5t-68.5 26.5t-28.5 65.5z" />
<glyph unicode="&#xf0;" horiz-adv-x="1296" d="M111 504q0 107 39 200t105 156t154.5 99t186.5 36q100 0 177.5 -29t154.5 -83l-269 374l-237 -114q-15 -6 -29 -6q-25 0 -41 17t-16 42q0 34 37 53l219 103l-21 30q-16 22 -16 50q0 31 22 52t54 21q39 0 65 -37l35 -51l178 84q12 6 29 6q23 0 40 -17t17 -42 q0 -36 -39 -53l-159 -74l207 -305q92 -133 136 -248t44 -252q0 -145 -65.5 -267.5t-191.5 -198t-288 -75.5q-149 0 -271 72t-189.5 193t-67.5 264zM270 498q0 -155 108.5 -269t270.5 -114q163 0 268 113t105 272q0 154 -111.5 262t-277.5 108q-164 0 -263.5 -106t-99.5 -266 z" />
<glyph unicode="&#xf1;" horiz-adv-x="1261" d="M176 70v919q0 32 23 56t55 24q34 0 57 -23t23 -57v-115q126 207 362 207q189 0 297.5 -116t108.5 -308v-587q0 -34 -23 -57t-55 -23q-34 0 -57 23t-23 57v548q0 149 -77.5 234.5t-215.5 85.5t-227.5 -92t-89.5 -240v-536q0 -34 -22 -57t-56 -23t-57 23t-23 57zM317 1243 q0 5 7 33q31 89 72.5 127.5t107.5 38.5q49 0 145.5 -41t128.5 -41q34 0 54.5 16t39.5 56q17 34 48 34q22 0 37.5 -14.5t15.5 -34.5q0 -3 -6 -33q-31 -89 -73 -127t-108 -38q-49 0 -145.5 40.5t-128.5 40.5q-34 0 -54.5 -16t-39.5 -55q-18 -35 -47 -35q-22 0 -38 14.5 t-16 34.5z" />
<glyph unicode="&#xf2;" horiz-adv-x="1323" d="M111 524v4q0 149 71 275.5t198.5 202t283.5 75.5q116 0 219 -44t175 -118t114 -175t42 -212v-4q0 -148 -71.5 -275t-199.5 -202.5t-284 -75.5q-116 0 -219 44t-174.5 118t-113 175t-41.5 212zM272 528q0 -171 113 -291t279 -120q169 0 279 118.5t110 288.5v4 q0 172 -114 293t-280 121q-112 0 -201 -56t-137.5 -149.5t-48.5 -204.5v-4zM387 1442q0 21 37 41t74 20q43 0 73 -47l123 -186q11 -15 11 -31q0 -12 -11 -20.5t-28 -8.5q-31 0 -52.5 8t-44.5 31l-153 146q-29 29 -29 47z" />
<glyph unicode="&#xf3;" horiz-adv-x="1323" d="M111 524v4q0 149 71 275.5t198.5 202t283.5 75.5q116 0 219 -44t175 -118t114 -175t42 -212v-4q0 -148 -71.5 -275t-199.5 -202.5t-284 -75.5q-116 0 -219 44t-174.5 118t-113 175t-41.5 212zM272 528q0 -171 113 -291t279 -120q169 0 279 118.5t110 288.5v4 q0 172 -114 293t-280 121q-112 0 -201 -56t-137.5 -149.5t-48.5 -204.5v-4zM618 1239q0 16 11 31l123 186q30 47 73 47q37 0 74 -20t37 -41q0 -18 -29 -47l-153 -146q-23 -23 -44.5 -31t-52.5 -8q-17 0 -28 8.5t-11 20.5z" />
<glyph unicode="&#xf4;" horiz-adv-x="1323" d="M111 524v4q0 149 71 275.5t198.5 202t283.5 75.5q116 0 219 -44t175 -118t114 -175t42 -212v-4q0 -148 -71.5 -275t-199.5 -202.5t-284 -75.5q-116 0 -219 44t-174.5 118t-113 175t-41.5 212zM272 528q0 -171 113 -291t279 -120q169 0 279 118.5t110 288.5v4 q0 172 -114 293t-280 121q-112 0 -201 -56t-137.5 -149.5t-48.5 -204.5v-4zM403 1239q0 9 15 35l143 176q38 45 82 45h37q44 0 82 -45l143 -176q15 -26 15 -35q0 -12 -11 -20.5t-28 -8.5q-60 0 -101 39l-121 107l-120 -107q-25 -24 -46.5 -31.5t-52.5 -7.5q-17 0 -27 8.5 t-10 20.5z" />
<glyph unicode="&#xf5;" horiz-adv-x="1323" d="M111 524v4q0 149 71 275.5t198.5 202t283.5 75.5q116 0 219 -44t175 -118t114 -175t42 -212v-4q0 -148 -71.5 -275t-199.5 -202.5t-284 -75.5q-116 0 -219 44t-174.5 118t-113 175t-41.5 212zM272 528q0 -171 113 -291t279 -120q169 0 279 118.5t110 288.5v4 q0 172 -114 293t-280 121q-112 0 -201 -56t-137.5 -149.5t-48.5 -204.5v-4zM340 1243q0 9 6 33q31 89 72.5 127.5t107.5 38.5q49 0 146 -41t129 -41q34 0 54.5 16t39.5 56q17 34 47 34q22 0 37.5 -14.5t15.5 -34.5q0 -3 -6 -33q-31 -89 -72.5 -127t-107.5 -38 q-49 0 -145.5 40.5t-128.5 40.5q-35 0 -55.5 -16t-39.5 -55q-18 -35 -47 -35q-22 0 -37.5 14.5t-15.5 34.5z" />
<glyph unicode="&#xf6;" horiz-adv-x="1323" d="M111 524v4q0 149 71 275.5t198.5 202t283.5 75.5q116 0 219 -44t175 -118t114 -175t42 -212v-4q0 -148 -71.5 -275t-199.5 -202.5t-284 -75.5q-116 0 -219 44t-174.5 118t-113 175t-41.5 212zM272 528q0 -171 113 -291t279 -120q169 0 279 118.5t110 288.5v4 q0 172 -114 293t-280 121q-112 0 -201 -56t-137.5 -149.5t-48.5 -204.5v-4zM383 1300v31q0 39 28 65.5t68 26.5t68 -26.5t28 -65.5v-31q0 -39 -28 -65.5t-68 -26.5t-68 26.5t-28 65.5zM748 1300v31q0 39 28 65.5t68 26.5t68 -26.5t28 -65.5v-31q0 -39 -28 -65.5t-68 -26.5 t-68 26.5t-28 65.5z" />
<glyph unicode="&#xf7;" horiz-adv-x="1280" d="M129 721q0 29 21.5 50.5t50.5 21.5h878q29 0 50.5 -21.5t21.5 -50.5t-21.5 -50.5t-50.5 -21.5h-878q-29 0 -50.5 21.5t-21.5 50.5zM535 301v27q0 42 31 72t75 30q43 0 73.5 -30.5t30.5 -71.5v-27q0 -41 -30.5 -71.5t-73.5 -30.5q-44 0 -75 30t-31 72zM535 1114v27 q0 42 31 72t75 30q43 0 73.5 -30.5t30.5 -71.5v-27q0 -41 -30.5 -71.5t-73.5 -30.5q-44 0 -75 30t-31 72z" />
<glyph unicode="&#xf8;" horiz-adv-x="1323" d="M111 524v4q0 149 71 275.5t198.5 202t283.5 75.5q190 0 337 -112l84 88q24 24 54 24q23 0 39 -15t16 -38q0 -27 -20 -47l-89 -92q129 -151 129 -357v-4q0 -148 -71.5 -275t-199.5 -202.5t-284 -75.5q-191 0 -340 113l-81 -84q-24 -24 -52 -24q-24 0 -40.5 15t-16.5 38 q0 27 23 47l86 88q-127 149 -127 356zM270 528q0 -138 76 -247l557 577q-107 86 -244 86q-169 0 -279 -120t-110 -292v-4zM422 201q107 -86 242 -86q170 0 280.5 119t110.5 290v4q0 137 -78 248z" />
<glyph unicode="&#xf9;" horiz-adv-x="1261" d="M160 401v588q0 34 22 57t56 23q32 0 55.5 -23.5t23.5 -56.5v-549q0 -149 77 -234t216 -85q137 0 227.5 92.5t90.5 239.5v536q0 34 22 57t56 23q32 0 54.5 -23t22.5 -57v-919q0 -33 -22 -56.5t-55 -23.5q-32 0 -55 23t-23 57v114q-130 -207 -363 -207q-189 0 -297 116 t-108 308zM346 1442q0 21 37 41t74 20q43 0 73 -47l123 -186q11 -15 11 -31q0 -12 -11 -20.5t-28 -8.5q-31 0 -52.5 8t-44.5 31l-153 146q-29 29 -29 47z" />
<glyph unicode="&#xfa;" horiz-adv-x="1261" d="M160 401v588q0 34 22 57t56 23q32 0 55.5 -23.5t23.5 -56.5v-549q0 -149 77 -234t216 -85q137 0 227.5 92.5t90.5 239.5v536q0 34 22 57t56 23q32 0 54.5 -23t22.5 -57v-919q0 -33 -22 -56.5t-55 -23.5q-32 0 -55 23t-23 57v114q-130 -207 -363 -207q-189 0 -297 116 t-108 308zM578 1239q0 18 10 31l123 186q30 47 73 47q37 0 74 -20t37 -41q0 -18 -29 -47l-153 -146q-23 -23 -44.5 -31t-52.5 -8q-17 0 -27.5 8.5t-10.5 20.5z" />
<glyph unicode="&#xfb;" horiz-adv-x="1261" d="M160 401v588q0 34 22 57t56 23q32 0 55.5 -23.5t23.5 -56.5v-549q0 -149 77 -234t216 -85q137 0 227.5 92.5t90.5 239.5v536q0 34 22 57t56 23q32 0 54.5 -23t22.5 -57v-919q0 -33 -22 -56.5t-55 -23.5q-32 0 -55 23t-23 57v114q-130 -207 -363 -207q-189 0 -297 116 t-108 308zM362 1239q0 9 15 35l143 176q38 45 82 45h37q44 0 82 -45l143 -176q15 -26 15 -35q0 -12 -11 -20.5t-28 -8.5q-60 0 -101 39l-121 107l-120 -107q-25 -24 -46.5 -31.5t-52.5 -7.5q-17 0 -27 8.5t-10 20.5z" />
<glyph unicode="&#xfc;" horiz-adv-x="1261" d="M160 401v588q0 34 22 57t56 23q32 0 55.5 -23.5t23.5 -56.5v-549q0 -149 77 -234t216 -85q137 0 227.5 92.5t90.5 239.5v536q0 34 22 57t56 23q32 0 54.5 -23t22.5 -57v-919q0 -33 -22 -56.5t-55 -23.5q-32 0 -55 23t-23 57v114q-130 -207 -363 -207q-189 0 -297 116 t-108 308zM342 1300v31q0 39 28 65.5t68 26.5t68.5 -26.5t28.5 -65.5v-31q0 -39 -28.5 -65.5t-68.5 -26.5t-68 26.5t-28 65.5zM707 1300v31q0 39 28 65.5t68 26.5t68 -26.5t28 -65.5v-31q0 -39 -28 -65.5t-68 -26.5t-68 26.5t-28 65.5z" />
<glyph unicode="&#xfd;" horiz-adv-x="1202" d="M96 991q0 32 23 55t57 23q56 0 80 -61l369 -832l327 834q21 59 76 59q32 0 55 -23t23 -55q0 -15 -8 -39l-414 -987q-68 -162 -150.5 -230.5t-203.5 -68.5q-83 0 -174 31q-50 20 -50 67q0 29 20.5 48.5t47.5 19.5q15 0 39 -8q59 -19 115 -19q72 0 120.5 44.5t92.5 144.5 l8 16l-443 938q-10 23 -10 43zM563 1239q0 18 10 31l123 186q30 47 74 47q37 0 74 -20t37 -41q0 -18 -29 -47l-154 -146q-24 -24 -44.5 -31.5t-51.5 -7.5q-17 0 -28 8.5t-11 20.5z" />
<glyph unicode="&#xfe;" horiz-adv-x="1359" d="M176 -258v1683q0 34 23 57t55 23q34 0 57 -23t23 -57v-579q159 235 405 235q77 0 150.5 -23.5t137.5 -70t113 -111.5t77 -154t28 -190v-4q0 -126 -43 -231.5t-114 -174.5t-161.5 -107t-187.5 -38q-249 0 -405 226v-461q0 -34 -22 -57t-56 -23t-57 23t-23 57zM328 528 q0 -90 32 -167.5t85.5 -129.5t122.5 -82t143 -30q159 0 265.5 110t106.5 297v4q0 183 -108.5 296.5t-263.5 113.5q-153 0 -268 -116t-115 -292v-4z" />
<glyph unicode="&#xff;" horiz-adv-x="1202" d="M96 991q0 32 23 55t57 23q56 0 80 -61l369 -832l327 834q21 59 76 59q32 0 55 -23t23 -55q0 -15 -8 -39l-414 -987q-68 -162 -150.5 -230.5t-203.5 -68.5q-83 0 -174 31q-50 20 -50 67q0 29 20.5 48.5t47.5 19.5q15 0 39 -8q59 -19 115 -19q72 0 120.5 44.5t92.5 144.5 l8 16l-443 938q-10 23 -10 43zM328 1300v31q0 39 28 65.5t68 26.5t68 -26.5t28 -65.5v-31q0 -39 -28 -65.5t-68 -26.5t-68 26.5t-28 65.5zM692 1300v31q0 39 28 65.5t68 26.5t68.5 -26.5t28.5 -65.5v-31q0 -39 -28.5 -65.5t-68.5 -26.5t-68 26.5t-28 65.5z" />
<glyph unicode="&#x152;" horiz-adv-x="2316" d="M139 713v4q0 150 56 282t155 228t242 151.5t309 55.5h1217q31 0 52 -21.5t21 -52.5t-21 -52.5t-52 -21.5h-772v-489h679q30 0 52 -22t22 -52q0 -31 -21.5 -52.5t-52.5 -21.5h-679v-502h782q31 0 52.5 -21t21.5 -52t-21.5 -52.5t-52.5 -21.5h-1227q-166 0 -308.5 54.5 t-242 149.5t-155.5 226.5t-56 282.5zM307 717q0 -118 42.5 -222t118.5 -180.5t188 -120.5t245 -44h283v1134h-283q-133 0 -245 -43.5t-188 -119t-118.5 -179t-42.5 -221.5v-4z" />
<glyph unicode="&#x153;" horiz-adv-x="2148" d="M111 524v4q0 148 71.5 275t198 202.5t278.5 75.5t274.5 -76t188.5 -204q61 129 175.5 204.5t258.5 75.5q150 0 264 -76t171 -196.5t57 -263.5q0 -31 -23 -52.5t-53 -21.5h-764q15 -166 120.5 -262t250.5 -96q170 0 307 123q22 18 43 18q29 0 49.5 -20t20.5 -48t-23 -51 q-83 -78 -178 -119t-221 -41q-148 0 -270 76.5t-187 208.5q-66 -128 -190 -206.5t-277 -78.5q-113 0 -214 44t-172.5 118t-113.5 175t-42 212zM272 528q0 -171 112.5 -291t277.5 -120q167 0 276 118.5t109 288.5v4q0 112 -51 207t-141 151t-198 56q-167 0 -276 -119.5 t-109 -290.5v-4zM1206 588h682q-13 155 -100 257.5t-236 102.5q-138 0 -234.5 -101.5t-111.5 -258.5z" />
<glyph unicode="&#x178;" horiz-adv-x="1449" d="M92 1364q0 32 25 56t59 24q44 0 78 -49l473 -682l477 682q34 49 76 49q33 0 56.5 -23.5t23.5 -56.5q0 -22 -23 -59l-530 -738v-495q0 -34 -24 -58t-58 -24t-58 24t-24 58v491l-532 746q-19 30 -19 55zM446 1642v31q0 39 28.5 65.5t68.5 26.5t68 -26.5t28 -65.5v-31 q0 -39 -28 -65.5t-68 -26.5t-68.5 26.5t-28.5 65.5zM811 1642v31q0 39 28 65.5t68 26.5t68.5 -26.5t28.5 -65.5v-31q0 -39 -28.5 -65.5t-68.5 -26.5t-68 26.5t-28 65.5z" />
<glyph unicode="&#x2c6;" horiz-adv-x="1024" d="M254 1239q0 11 14 35l144 176q38 45 82 45h36q44 0 82 -45l144 -176q14 -24 14 -35q0 -12 -11 -20.5t-28 -8.5q-32 0 -53.5 8t-46.5 31l-121 107l-121 -107q-25 -24 -46 -31.5t-52 -7.5q-17 0 -27 8.5t-10 20.5z" />
<glyph unicode="&#x2dc;" horiz-adv-x="1024" d="M184 1243q0 9 6 33q31 89 73 127.5t108 38.5q49 0 145.5 -41t128.5 -41q34 0 54.5 16t39.5 56q17 34 47 34q22 0 38 -14.5t16 -34.5q0 -3 -6 -33q-31 -89 -73 -127t-108 -38q-49 0 -145.5 40.5t-128.5 40.5q-34 0 -54.5 -16t-39.5 -55q-17 -35 -47 -35q-22 0 -38 14.5 t-16 34.5z" />
<glyph unicode="&#x2000;" horiz-adv-x="933" />
<glyph unicode="&#x2001;" horiz-adv-x="1866" />
<glyph unicode="&#x2002;" horiz-adv-x="933" />
<glyph unicode="&#x2003;" horiz-adv-x="1866" />
<glyph unicode="&#x2004;" horiz-adv-x="622" />
<glyph unicode="&#x2005;" horiz-adv-x="466" />
<glyph unicode="&#x2006;" horiz-adv-x="311" />
<glyph unicode="&#x2007;" horiz-adv-x="311" />
<glyph unicode="&#x2008;" horiz-adv-x="233" />
<glyph unicode="&#x2009;" horiz-adv-x="373" />
<glyph unicode="&#x200a;" horiz-adv-x="103" />
<glyph unicode="&#x2010;" horiz-adv-x="835" d="M123 616q0 33 24.5 57.5t57.5 24.5h426q33 0 57.5 -24.5t24.5 -57.5q0 -34 -24 -59t-58 -25h-426q-34 0 -58 25t-24 59z" />
<glyph unicode="&#x2011;" horiz-adv-x="835" d="M123 616q0 33 24.5 57.5t57.5 24.5h426q33 0 57.5 -24.5t24.5 -57.5q0 -34 -24 -59t-58 -25h-426q-34 0 -58 25t-24 59z" />
<glyph unicode="&#x2012;" horiz-adv-x="835" d="M123 616q0 33 24.5 57.5t57.5 24.5h426q33 0 57.5 -24.5t24.5 -57.5q0 -34 -24 -59t-58 -25h-426q-34 0 -58 25t-24 59z" />
<glyph unicode="&#x2013;" horiz-adv-x="1081" d="M123 616q0 31 23 54.5t55 23.5h680q32 0 54.5 -23.5t22.5 -54.5q0 -32 -22.5 -55.5t-54.5 -23.5h-680q-32 0 -55 23.5t-23 55.5z" />
<glyph unicode="&#x2014;" horiz-adv-x="1839" d="M123 616q0 31 23 54.5t55 23.5h1437q32 0 55 -23.5t23 -54.5q0 -32 -23 -55.5t-55 -23.5h-1437q-32 0 -55 23.5t-23 55.5z" />
<glyph unicode="&#x2018;" horiz-adv-x="501" d="M145 1081v39q0 174 72 246q32 32 73 54t66 22q20 0 32.5 -11.5t12.5 -31.5q0 -27 -28 -37q-62 -28 -89.5 -68.5t-23.5 -99.5q33 -8 55.5 -33.5t22.5 -64.5v-31q0 -40 -27 -68t-67 -28q-44 0 -71.5 31t-27.5 81z" />
<glyph unicode="&#x2019;" horiz-adv-x="501" d="M102 1012q0 29 27 39q63 28 90.5 68t24.5 100q-34 8 -57 33t-23 63v33q0 40 27 68t67 28q44 0 72 -31.5t28 -81.5v-39q0 -172 -73 -245q-31 -32 -72.5 -54t-67.5 -22q-20 0 -31.5 11t-11.5 30z" />
<glyph unicode="&#x201a;" horiz-adv-x="501" d="M92 -205q0 27 27 37q63 28 90 68t24 100q-34 8 -56.5 33.5t-22.5 64.5v33q0 40 26.5 67t67.5 27q45 0 72.5 -30.5t27.5 -81.5v-39q0 -172 -74 -246q-31 -31 -72 -52.5t-67 -21.5q-20 0 -31.5 11t-11.5 30z" />
<glyph unicode="&#x201c;" horiz-adv-x="911" d="M145 1081v39q0 174 72 246q32 32 73 54t66 22q20 0 32.5 -11.5t12.5 -31.5q0 -27 -28 -37q-62 -28 -89.5 -68.5t-23.5 -99.5q33 -8 55.5 -33.5t22.5 -64.5v-31q0 -40 -27 -68t-67 -28q-44 0 -71.5 31t-27.5 81zM555 1081v39q0 174 72 246q32 32 73 54t66 22 q20 0 32.5 -11.5t12.5 -31.5q0 -26 -29 -37q-121 -54 -112 -168q33 -8 55.5 -33.5t22.5 -64.5v-31q0 -40 -27.5 -68t-67.5 -28q-44 0 -71 31t-27 81z" />
<glyph unicode="&#x201d;" horiz-adv-x="911" d="M102 1012q0 29 27 39q63 28 90.5 68t24.5 100q-34 8 -57 33t-23 63v33q0 40 27 68t67 28q44 0 72 -31.5t28 -81.5v-39q0 -172 -73 -245q-31 -32 -72.5 -54t-67.5 -22q-20 0 -31.5 11t-11.5 30zM512 1012q0 29 27 39q63 28 90 68t24 100q-34 8 -57 33t-23 63v33 q0 40 27.5 68t67.5 28q44 0 72 -31.5t28 -81.5v-39q0 -171 -74 -245q-31 -33 -72 -54.5t-67 -21.5q-20 0 -31.5 11t-11.5 30z" />
<glyph unicode="&#x201e;" horiz-adv-x="911" d="M92 -205q0 27 27 37q63 28 90 68t24 100q-34 8 -56.5 33.5t-22.5 64.5v33q0 40 26.5 67t67.5 27q45 0 72.5 -30.5t27.5 -81.5v-39q0 -172 -74 -246q-31 -31 -72 -52.5t-67 -21.5q-20 0 -31.5 11t-11.5 30zM502 -205q0 27 26 37q63 28 90.5 68t24.5 100q-35 8 -57.5 33.5 t-22.5 64.5v33q0 39 27.5 66.5t66.5 27.5q44 0 72.5 -31.5t28.5 -80.5v-39q0 -172 -74 -246q-31 -31 -72 -52.5t-67 -21.5q-20 0 -31.5 11t-11.5 30z" />
<glyph unicode="&#x2022;" horiz-adv-x="978" d="M221 719v4q0 109 80 187.5t188 78.5q107 0 188 -78.5t81 -187.5v-4q0 -110 -79 -188t-190 -78q-110 0 -189 78t-79 188z" />
<glyph unicode="&#x2026;" horiz-adv-x="1480" d="M154 88v41q0 41 26.5 68.5t67.5 27.5q42 0 69 -27t27 -69v-41q0 -42 -27 -70t-69 -28q-41 0 -67.5 28t-26.5 70zM645 88v41q0 42 27 69t69 27q41 0 68 -27.5t27 -68.5v-41q0 -42 -27 -70t-68 -28q-42 0 -69 28t-27 70zM1139 88v41q0 41 26.5 68.5t67.5 27.5t67.5 -27.5 t26.5 -68.5v-41q0 -42 -26.5 -70t-67.5 -28t-67.5 28t-26.5 70z" />
<glyph unicode="&#x202f;" horiz-adv-x="373" />
<glyph unicode="&#x2039;" horiz-adv-x="671" d="M111 530q0 26 24 56l271 352q23 33 59 33q28 0 47.5 -19t19.5 -47q0 -24 -18 -49l-242 -324l244 -331q16 -22 16 -47q0 -28 -19.5 -48t-47.5 -20q-31 0 -57 33l-273 354q-24 30 -24 57z" />
<glyph unicode="&#x203a;" horiz-adv-x="671" d="M139 154q0 24 19 47l241 325l-243 332q-19 30 -17 47q0 28 19.5 47t48.5 19q34 0 55 -31l275 -356q24 -30 24 -56q0 -25 -24 -55l-271 -352q-28 -35 -61 -35q-28 0 -47 20t-19 48z" />
<glyph unicode="&#x205f;" horiz-adv-x="466" />
<glyph unicode="&#x20ac;" horiz-adv-x="1474" d="M106 549q0 27 19 46t45 19h111q-5 82 -5 101q0 53 7 121h-113q-26 0 -45 18.5t-19 44.5t19 45t45 19h137q60 221 210.5 358t352.5 137q155 0 265 -62t198 -175q21 -25 21 -54q0 -31 -22.5 -53t-53.5 -22q-37 0 -61 28q-74 99 -155.5 146t-197.5 47q-136 0 -240.5 -95.5 t-150.5 -254.5h471q26 0 46 -19t20 -45t-19.5 -44.5t-46.5 -18.5h-500q-6 -58 -6 -117q0 -72 4 -105h502q27 0 46.5 -19t19.5 -46q0 -26 -20 -45t-46 -19h-477q46 -168 157 -266t263 -98q106 0 187 52.5t153 150.5q21 28 57 28q31 0 52.5 -20.5t21.5 -50.5q0 -19 -17 -45 q-90 -124 -200 -192.5t-260 -68.5q-215 0 -370 139.5t-210 370.5h-131q-26 0 -45 19t-19 45z" />
<glyph unicode="&#x2122;" horiz-adv-x="1413" d="M43 1391q0 17 13 30t30 13h428q18 0 30.5 -12.5t12.5 -30.5t-12.5 -30.5t-30.5 -12.5h-168v-510q0 -19 -13.5 -32t-33.5 -13q-19 0 -31 13t-12 32v510h-170q-17 0 -30 13t-13 30zM688 838v553q0 20 12.5 32.5t32.5 12.5h12q25 0 41 -23l222 -344l225 344q16 23 39 23h12 q17 0 30 -13t13 -32v-553q0 -19 -13 -32t-32 -13t-31 13t-12 32v426l-190 -285q-17 -27 -41 -27t-41 27l-189 285v-426q0 -19 -13 -32t-32 -13t-32 13t-13 32z" />
<glyph unicode="&#xe000;" horiz-adv-x="1064" d="M0 0v1065h1065v-1065h-1065z" />
<glyph unicode="&#xfb01;" horiz-adv-x="1292" d="M82 989q0 28 20 48t48 20h86v92q0 180 92 272q82 82 227 82q73 0 125 -12q24 -5 40.5 -23.5t16.5 -44.5q0 -31 -22 -50.5t-53 -16.5q-67 10 -87 10q-184 0 -184 -225v-86h275q29 0 49 -19.5t20 -48.5q0 -28 -20 -47.5t-49 -19.5h-273v-850q0 -33 -22.5 -56.5t-55.5 -23.5 t-56 23.5t-23 56.5v850h-86q-29 0 -48.5 20t-19.5 49zM928 1364v27q0 37 26.5 60.5t65.5 23.5q40 0 67 -23t27 -61v-27q0 -36 -27 -60t-67 -24q-39 0 -65.5 24t-26.5 60zM942 70v919q0 32 23 56t55 24q34 0 57 -23t23 -57v-919q0 -34 -22 -57t-56 -23t-57 23t-23 57z" />
<glyph unicode="&#xfb02;" horiz-adv-x="1292" d="M82 989q0 28 20 48t48 20h86v92q0 180 92 272q82 82 227 82q73 0 125 -12q24 -5 40.5 -23.5t16.5 -44.5q0 -31 -22 -50.5t-53 -16.5q-67 10 -87 10q-184 0 -184 -225v-86h275q29 0 49 -19.5t20 -48.5q0 -28 -20 -47.5t-49 -19.5h-273v-850q0 -33 -22.5 -56.5t-55.5 -23.5 t-56 23.5t-23 56.5v850h-86q-29 0 -48.5 20t-19.5 49zM942 70v1355q0 32 23 56t55 24q33 0 56.5 -23.5t23.5 -56.5v-1355q0 -34 -22 -57t-56 -23t-57 23t-23 57z" />
<glyph unicode="&#xfb03;" horiz-adv-x="2043" d="M82 989q0 28 20 48t48 20h86v92q0 180 92 272q82 82 227 82q73 0 125 -12q24 -5 40.5 -23.5t16.5 -44.5q0 -31 -22 -50.5t-53 -16.5q-67 10 -87 10q-184 0 -184 -225v-86h275q29 0 49 -19.5t20 -48.5q0 -28 -20 -47.5t-49 -19.5h-273v-850q0 -33 -22.5 -56.5t-55.5 -23.5 t-56 23.5t-23 56.5v850h-86q-29 0 -48.5 20t-19.5 49zM834 989q0 28 19.5 48t47.5 20h86v92q0 180 92 272q82 82 228 82q73 0 125 -12q24 -5 40.5 -23.5t16.5 -44.5q0 -31 -22.5 -50.5t-53.5 -16.5q-68 10 -86 10q-184 0 -184 -225v-86h274q29 0 49.5 -19.5t20.5 -48.5 q0 -28 -20.5 -47.5t-49.5 -19.5h-272v-850q0 -33 -22.5 -56.5t-55.5 -23.5t-56.5 23.5t-23.5 56.5v850h-86q-29 0 -48 20t-19 49zM1679 1364v27q0 37 27 60.5t66 23.5q40 0 67 -23t27 -61v-27q0 -36 -27 -60t-67 -24q-39 0 -66 24t-27 60zM1694 70v919q0 32 23 56t55 24 q34 0 56.5 -23t22.5 -57v-919q0 -34 -22 -57t-55 -23q-34 0 -57 23t-23 57z" />
<glyph unicode="&#xfb04;" horiz-adv-x="2041" d="M82 989q0 28 20 48t48 20h86v92q0 180 92 272q82 82 227 82q73 0 125 -12q24 -5 40.5 -23.5t16.5 -44.5q0 -31 -22 -50.5t-53 -16.5q-67 10 -87 10q-184 0 -184 -225v-86h275q29 0 49 -19.5t20 -48.5q0 -28 -20 -47.5t-49 -19.5h-273v-850q0 -33 -22.5 -56.5t-55.5 -23.5 t-56 23.5t-23 56.5v850h-86q-29 0 -48.5 20t-19.5 49zM834 989q0 28 19.5 48t47.5 20h86v92q0 180 92 272q82 82 228 82q73 0 125 -12q24 -5 40.5 -23.5t16.5 -44.5q0 -31 -22.5 -50.5t-53.5 -16.5q-68 10 -86 10q-184 0 -184 -225v-86h274q29 0 49.5 -19.5t20.5 -48.5 q0 -28 -20.5 -47.5t-49.5 -19.5h-272v-850q0 -33 -22.5 -56.5t-55.5 -23.5t-56.5 23.5t-23.5 56.5v850h-86q-29 0 -48 20t-19 49zM1694 70v1355q0 32 23 56t55 24q33 0 56 -23.5t23 -56.5v-1355q0 -34 -22 -57t-55 -23q-34 0 -57 23t-23 57z" />
</font>
</defs>
</svg>
